<svg width="40" height="40" viewBox="0 0 40 40" fill="none" xmlns="http://www.w3.org/2000/svg">
<path d="M34.0002 16C33.4698 16 32.9611 16.2107 32.586 16.5858C32.211 16.9609 32.0002 17.4696 32.0002 18V24.76L29.0402 21.8C27.9951 20.7631 26.5825 20.1812 25.1102 20.1812C23.638 20.1812 22.2254 20.7631 21.1802 21.8L19.7802 23.22L14.8202 18.24C13.7751 17.2031 12.3625 16.6213 10.8902 16.6213C9.41799 16.6213 8.0054 17.2031 6.96024 18.24L4.00024 21.22V10C4.00024 9.46957 4.21096 8.96086 4.58603 8.58579C4.9611 8.21071 5.46981 8 6.00024 8H22.0002C22.5307 8 23.0394 7.78929 23.4145 7.41421C23.7895 7.03914 24.0002 6.53043 24.0002 6C24.0002 5.46957 23.7895 4.96086 23.4145 4.58579C23.0394 4.21071 22.5307 4 22.0002 4H6.00024C4.40895 4 2.88282 4.63214 1.7576 5.75736C0.632385 6.88258 0.000244141 8.4087 0.000244141 10V34.44C0.00551425 35.913 0.59299 37.3241 1.63455 38.3657C2.67611 39.4073 4.08726 39.9947 5.56024 40H30.4402C30.9822 39.9957 31.5209 39.9149 32.0402 39.76C33.1951 39.4361 34.2118 38.7422 34.9344 37.7848C35.6569 36.8274 36.0454 35.6594 36.0402 34.46V18C36.0403 17.734 35.9873 17.4706 35.8843 17.2253C35.7813 16.98 35.6304 16.7577 35.4404 16.5715C35.2504 16.3852 35.0252 16.2387 34.7779 16.1406C34.5306 16.0425 34.2662 15.9947 34.0002 16ZM6.00024 36C5.46981 36 4.9611 35.7893 4.58603 35.4142C4.21096 35.0391 4.00024 34.5304 4.00024 34V26.86L9.78024 21.08C10.0725 20.7893 10.468 20.6262 10.8802 20.6262C11.2925 20.6262 11.6879 20.7893 11.9802 21.08L26.9202 36H6.00024ZM32.0002 34C31.9874 34.3873 31.8623 34.7625 31.6402 35.08L22.6002 26L24.0202 24.6C24.1636 24.4537 24.3348 24.3374 24.5237 24.258C24.7125 24.1787 24.9154 24.1378 25.1202 24.1378C25.3251 24.1378 25.5279 24.1787 25.7168 24.258C25.9057 24.3374 26.0769 24.4537 26.2202 24.6L32.0002 30.42V34ZM38.0002 4H36.0002V2C36.0002 1.46957 35.7895 0.960859 35.4145 0.585786C35.0394 0.210714 34.5307 0 34.0002 0C33.4698 0 32.9611 0.210714 32.586 0.585786C32.211 0.960859 32.0002 1.46957 32.0002 2V4H30.0002C29.4698 4 28.9611 4.21071 28.586 4.58579C28.211 4.96086 28.0002 5.46957 28.0002 6C28.0002 6.53043 28.211 7.03914 28.586 7.41421C28.9611 7.78929 29.4698 8 30.0002 8H32.0002V10C32.0002 10.5304 32.211 11.0391 32.586 11.4142C32.9611 11.7893 33.4698 12 34.0002 12C34.5307 12 35.0394 11.7893 35.4145 11.4142C35.7895 11.0391 36.0002 10.5304 36.0002 10V8H38.0002C38.5307 8 39.0394 7.78929 39.4145 7.41421C39.7895 7.03914 40.0002 6.53043 40.0002 6C40.0002 5.46957 39.7895 4.96086 39.4145 4.58579C39.0394 4.21071 38.5307 4 38.0002 4Z" fill="#2C2C2C"/>
</svg>
