<svg width="139" height="35" viewBox="0 0 139 35" fill="none" xmlns="http://www.w3.org/2000/svg">
<g clip-path="url(#clip0_5351_40020)">
<path d="M144.259 -13.6958H-15.7784V46.7652H144.259V-13.6958Z" fill="white"/>
<path d="M51.1643 23.6119C51.1639 25.1588 50.5612 26.643 49.4876 27.7413C48.414 28.8396 46.9563 29.4632 45.4318 29.4764C44.1185 29.4858 42.8496 28.9947 41.8761 28.1002V29.262H39.3975V11.6973H41.8761V19.1274C42.8576 18.249 44.1231 17.7674 45.4318 17.7742C46.9535 17.7818 48.4103 18.3999 49.4844 19.4937C50.5584 20.5874 51.1623 22.0679 51.1643 23.6119ZM48.6366 23.6119C48.6251 22.9356 48.4168 22.2779 48.0378 21.7214C47.6589 21.1649 47.1262 20.7346 46.5069 20.4845C45.8875 20.2344 45.2091 20.1756 44.557 20.3157C43.9048 20.4557 43.308 20.7883 42.8416 21.2716C42.3753 21.7549 42.0601 22.3673 41.9359 23.0318C41.8116 23.6964 41.8838 24.3834 42.1433 25.0064C42.4027 25.6294 42.838 26.1607 43.3943 26.5334C43.9505 26.9061 44.603 27.1036 45.2696 27.1011C46.1718 27.0905 47.033 26.7171 47.6642 26.063C48.2955 25.4089 48.6452 24.5273 48.6366 23.6119Z" fill="#012367"/>
<path d="M63.5838 17.9864V29.2618H61.1052V28.1C60.1317 28.9945 58.8628 29.4856 57.5495 29.4762C56.0202 29.4762 54.5534 28.8597 53.472 27.7624C52.3906 26.6651 51.7831 25.1769 51.7831 23.6251C51.7831 22.0733 52.3906 20.585 53.472 19.4877C54.5534 18.3904 56.0202 17.774 57.5495 17.774C58.8582 17.7672 60.1237 18.2488 61.1052 19.1272V17.9788L63.5838 17.9864ZM61.1052 23.6117C61.0937 22.9366 60.8861 22.28 60.5084 21.7242C60.1307 21.1683 59.5997 20.7379 58.982 20.487C58.3643 20.236 57.6873 20.1756 57.0359 20.3133C56.3845 20.451 55.7876 20.7808 55.3201 21.2612C54.8526 21.7416 54.5352 22.3514 54.4078 23.014C54.2803 23.6767 54.3484 24.3628 54.6036 24.9863C54.8588 25.6099 55.2896 26.1432 55.8422 26.5193C56.3948 26.8955 57.0445 27.0978 57.7098 27.1009C58.1594 27.1009 58.6045 27.0104 59.0193 26.8345C59.4341 26.6586 59.8103 26.4009 60.1262 26.0763C60.4421 25.7517 60.6912 25.3667 60.8593 24.9436C61.0274 24.5205 61.1109 24.0678 61.1052 23.6117Z" fill="#012367"/>
<path d="M68.8712 27.2673C70.0634 27.2673 70.5312 26.7219 70.5312 26.1764C70.5312 24.1112 64.893 25.3227 64.893 21.2402C64.893 19.2688 66.2964 17.7739 68.7769 17.7739C70.484 17.7739 71.9346 18.2716 72.9268 19.1501L71.6064 20.955C70.779 20.365 69.7881 20.0573 68.7769 20.0765C67.6772 20.0765 67.3264 20.5033 67.3264 21.0335C67.3264 22.98 72.8929 22.0307 72.8929 26.0902C72.8929 28.0827 71.4423 29.5546 68.7071 29.5546C66.7171 29.5546 65.4325 28.8196 64.3799 27.9889L65.689 26.0654C66.5779 26.8325 67.7044 27.258 68.8712 27.2673Z" fill="#012367"/>
<path d="M73.5941 23.6614C73.5777 22.4767 73.909 21.3139 74.5458 20.3209C75.1827 19.328 76.0964 18.5497 77.1705 18.0853C78.2447 17.6208 79.4308 17.4912 80.5777 17.7129C81.7247 17.9345 82.7808 18.4975 83.6115 19.3301C84.4422 20.1627 85.0099 21.2272 85.2424 22.3882C85.475 23.5493 85.3618 24.7542 84.9173 25.8498C84.4728 26.9453 83.7171 27.8819 82.7464 28.5403C81.7756 29.1987 80.6338 29.5491 79.4662 29.5469C78.699 29.5545 77.9379 29.408 77.2268 29.1158C76.5157 28.8236 75.8686 28.3915 75.3228 27.8444C74.7769 27.2973 74.3432 26.6461 74.0465 25.9282C73.7498 25.2102 73.5961 24.4399 73.5941 23.6614ZM82.837 23.6614C82.8476 23.2073 82.7686 22.7557 82.6047 22.333C82.4408 21.9104 82.1952 21.5253 81.8825 21.2003C81.5698 20.8754 81.1961 20.6171 80.7836 20.4408C80.3711 20.2645 79.928 20.1737 79.4803 20.1737C79.0327 20.1737 78.5896 20.2645 78.1771 20.4408C77.7645 20.6171 77.3909 20.8754 77.0782 21.2003C76.7654 21.5253 76.5199 21.9104 76.3559 22.333C76.192 22.7557 76.1131 23.2073 76.1237 23.6614C76.1237 25.5352 77.5497 27.1506 79.47 27.1506C79.9172 27.1479 80.3596 27.0552 80.7713 26.8779C81.1831 26.7007 81.5562 26.4423 81.8689 26.1179C82.1817 25.7934 82.4279 25.4092 82.5935 24.9876C82.759 24.5659 82.8405 24.1152 82.8332 23.6614H82.837Z" fill="#012367"/>
<path d="M98.5481 23.6119C98.5476 25.1588 97.945 26.643 96.8714 27.7413C95.7978 28.8396 94.3401 29.4632 92.8156 29.4764C91.5023 29.4858 90.2334 28.9947 89.2599 28.1002V29.262H86.787V11.6973H89.2656V19.1274C90.2471 18.249 91.5126 17.7674 92.8213 17.7742C94.3419 17.7833 95.7973 18.4021 96.8702 19.4957C97.943 20.5892 98.5461 22.0689 98.5481 23.6119ZM96.0204 23.6119C96.0089 22.9357 95.8006 22.278 95.4217 21.7216C95.0429 21.1652 94.5103 20.7348 93.8911 20.4846C93.2718 20.2345 92.5935 20.1756 91.9414 20.3155C91.2893 20.4554 90.6925 20.7878 90.2261 21.2709C89.7596 21.754 89.4444 22.3663 89.3199 23.0307C89.1954 23.6951 89.2673 24.382 89.5265 25.0051C89.7857 25.6281 90.2206 26.1595 90.7767 26.5325C91.3327 26.9054 91.985 27.1032 92.6515 27.1011C93.5548 27.092 94.4177 26.7194 95.0505 26.0651C95.6832 25.4109 96.0341 24.5285 96.0261 23.6119H96.0204Z" fill="#012367"/>
<path d="M110.973 17.9865V29.2618H108.494V28.1C107.52 28.9948 106.251 29.4859 104.937 29.4762C103.407 29.4762 101.941 28.8597 100.859 27.7624C99.7779 26.6651 99.1703 25.1769 99.1703 23.6251C99.1703 22.0733 99.7779 20.585 100.859 19.4877C101.941 18.3905 103.407 17.774 104.937 17.774C106.246 17.7669 107.512 18.2486 108.494 19.1272V17.9788L110.973 17.9865ZM108.494 23.6117C108.483 22.9366 108.275 22.28 107.898 21.7242C107.52 21.1683 106.989 20.7379 106.371 20.487C105.753 20.236 105.076 20.1756 104.425 20.3133C103.774 20.451 103.177 20.7808 102.709 21.2612C102.242 21.7416 101.924 22.3514 101.797 23.0141C101.669 23.6767 101.738 24.3628 101.993 24.9864C102.248 25.6099 102.679 26.1432 103.231 26.5193C103.784 26.8955 104.434 27.0978 105.099 27.1009C105.549 27.1009 105.994 27.0104 106.408 26.8345C106.823 26.6586 107.199 26.4009 107.515 26.0763C107.831 25.7517 108.08 25.3667 108.248 24.9436C108.416 24.5205 108.5 24.0678 108.494 23.6117Z" fill="#012367"/>
<path d="M123.698 17.9864V29.2618H121.218V28.1C120.244 28.9945 118.975 29.4856 117.662 29.4762C116.133 29.4762 114.666 28.8597 113.585 27.7624C112.503 26.6651 111.896 25.1769 111.896 23.6251C111.896 22.0733 112.503 20.585 113.585 19.4877C114.666 18.3904 116.133 17.774 117.662 17.774C118.971 17.7672 120.236 18.2488 121.218 19.1272V17.9788L123.698 17.9864ZM121.218 23.6117C121.206 22.9366 120.999 22.28 120.621 21.7242C120.243 21.1683 119.712 20.7379 119.094 20.487C118.477 20.236 117.8 20.1756 117.148 20.3133C116.497 20.451 115.9 20.7808 115.433 21.2612C114.965 21.7416 114.648 22.3514 114.52 23.014C114.393 23.6767 114.461 24.3628 114.716 24.9863C114.971 25.6099 115.402 26.1432 115.955 26.5193C116.507 26.8955 117.157 27.0978 117.822 27.1009C118.272 27.1009 118.717 27.0104 119.132 26.8345C119.547 26.6586 119.923 26.4009 120.239 26.0763C120.555 25.7517 120.804 25.3667 120.972 24.9436C121.14 24.5205 121.223 24.0678 121.218 23.6117Z" fill="#012367"/>
<path d="M128.984 27.2673C130.176 27.2673 130.646 26.7219 130.646 26.1764C130.646 24.1112 125.006 25.3227 125.006 21.2402C125.006 19.2688 126.411 17.7739 128.89 17.7739C130.599 17.7739 132.047 18.2716 133.039 19.1501L131.728 20.955C130.901 20.3654 129.91 20.0577 128.899 20.0765C127.799 20.0765 127.448 20.5033 127.448 21.0335C127.448 22.98 133.017 22.0307 133.017 26.0902C133.017 28.0827 131.566 29.5546 128.829 29.5546C126.841 29.5546 125.555 28.8196 124.502 27.9889L125.811 26.0654C126.698 26.8301 127.82 27.2554 128.984 27.2673Z" fill="#012367"/>
<path d="M137.084 27.7575C137.082 28.0677 136.991 28.3707 136.82 28.6281C136.649 28.8854 136.407 29.0857 136.124 29.2036C135.841 29.3214 135.531 29.3516 135.231 29.2902C134.931 29.2288 134.656 29.0787 134.44 28.8588C134.225 28.6389 134.078 28.3591 134.019 28.0546C133.96 27.7502 133.991 27.4349 134.109 27.1485C134.226 26.862 134.425 26.6174 134.679 26.4454C134.934 26.2735 135.233 26.1819 135.539 26.1823C135.743 26.1797 135.946 26.2187 136.135 26.297C136.324 26.3754 136.495 26.4914 136.639 26.6383C136.783 26.7852 136.897 26.96 136.973 27.1522C137.05 27.3444 137.087 27.5503 137.084 27.7575ZM136.833 27.7575C136.832 27.497 136.755 27.2427 136.612 27.0265C136.469 26.8104 136.265 26.6422 136.028 26.5433C135.791 26.4443 135.53 26.419 135.278 26.4705C135.026 26.5221 134.796 26.6482 134.615 26.8329C134.434 27.0176 134.311 27.2526 134.261 27.5082C134.212 27.7637 134.238 28.0284 134.337 28.2688C134.436 28.5091 134.603 28.7143 134.817 28.8583C135.031 29.0024 135.282 29.0789 135.539 29.0781C135.71 29.0799 135.879 29.0471 136.038 28.9816C136.196 28.9161 136.34 28.8192 136.462 28.6966C136.583 28.5741 136.679 28.4282 136.744 28.2676C136.809 28.107 136.841 27.9349 136.84 27.7613L136.833 27.7575ZM135.846 27.8685L136.257 28.5996H135.967L135.59 27.8972H135.258V28.5996H134.982V26.8675H135.614C136.014 26.8675 136.225 27.0723 136.225 27.3804C136.23 27.4948 136.195 27.6072 136.125 27.6974C136.056 27.7876 135.957 27.8496 135.846 27.8723V27.8685ZM135.25 27.6771H135.599C135.833 27.6771 135.939 27.5699 135.939 27.4015C135.939 27.233 135.833 27.1239 135.599 27.1239H135.25V27.6771Z" fill="#012367"/>
<path d="M16.967 2.33239L32.3593 12.7445V28.0565L24.6632 31.961V27.3177H1.57477V12.7445L16.967 2.33239ZM16.967 -0.0141602L-0.349258 11.6995V29.2699H22.7391V35.1268L34.2833 29.2699V11.6995L16.967 -0.0141602Z" fill="#012367"/>
<path d="M-0.349258 11.6995L5.42284 5.84266V-0.0141602H-0.349258V11.6995Z" fill="#012367"/>
</g>
<defs>
<clipPath id="clip0_5351_40020">
<rect width="139" height="35" fill="white"/>
</clipPath>
</defs>
</svg>
