<svg width="16" height="16" viewBox="0 0 16 16" fill="none" xmlns="http://www.w3.org/2000/svg">
<g clip-path="url(#clip0_5022_6302)">
<path d="M15.2633 0.22998C15.2953 5.20026 15.3113 10.1705 15.3433 15.1408C15.3433 15.4476 15.3273 15.8925 14.9109 15.8618C14.3343 15.8158 14.4625 15.2942 14.4625 14.926C14.4465 11.0449 14.4625 7.17917 14.4465 3.29805C14.4465 1.02768 14.7027 1.24244 12.2523 1.24244C10.8909 1.2271 9.54555 1.28847 8.2002 1.2271C7.0951 1.16574 6.6947 1.48789 6.71071 2.60774C6.77478 6.47351 6.72673 10.3393 6.72673 14.2204C6.72673 14.5272 6.72673 14.8493 6.71071 15.1562C6.6947 15.4783 6.6947 15.8618 6.26227 15.8618C5.82983 15.8618 5.82983 15.463 5.82983 15.1408C5.84585 10.1705 5.87788 5.20026 5.90991 0.22998C9.03304 0.22998 12.1562 0.22998 15.2633 0.22998Z" fill="white"/>
<path d="M0.928983 10.6766C0.928983 9.34203 0.961015 8.02276 0.912967 6.68814C0.880935 5.85976 1.21727 5.36887 2.0501 5.12343C2.78684 4.89332 3.50756 4.60185 4.22828 4.34107C4.56462 4.21834 4.90096 4.203 5.0451 4.58651C5.17323 4.90866 4.91697 5.09275 4.6447 5.21547C4.50056 5.29217 4.35641 5.38421 4.19625 5.39955C2.21027 5.69102 1.88994 6.90291 2.00206 8.59035C2.1462 10.646 2.03409 12.7322 2.03409 14.8032C2.03409 15.2174 2.13018 15.8157 1.53759 15.8463C0.816871 15.877 0.944999 15.2174 0.944999 14.7879C0.912967 13.4226 0.928983 12.0573 0.928983 10.6766Z" fill="white"/>
<ellipse rx="0.666667" ry="1" transform="matrix(1 0 0 -1 8.66667 3.6665)" fill="white"/>
<ellipse rx="0.666667" ry="1" transform="matrix(1 0 0 -1 8.66667 6.3335)" fill="white"/>
<ellipse rx="0.666667" ry="1" transform="matrix(1 0 0 -1 4.00004 8.3335)" fill="white"/>
<ellipse rx="0.666667" ry="1" transform="matrix(1 0 0 -1 8.66667 9)" fill="white"/>
<ellipse rx="0.666667" ry="1" transform="matrix(1 0 0 -1 4.00004 11)" fill="white"/>
<ellipse rx="0.666667" ry="1" transform="matrix(1 0 0 -1 8.66667 11.6665)" fill="white"/>
<ellipse rx="0.666667" ry="1" transform="matrix(1 0 0 -1 10.6667 3.6665)" fill="white"/>
<ellipse rx="0.666667" ry="1" transform="matrix(1 0 0 -1 10.6667 6.3335)" fill="white"/>
<ellipse rx="0.666667" ry="1" transform="matrix(1 0 0 -1 10.6667 9)" fill="white"/>
<ellipse rx="0.666667" ry="1" transform="matrix(1 0 0 -1 10.6667 11.6665)" fill="white"/>
<ellipse rx="0.666667" ry="1" transform="matrix(1 0 0 -1 12.6667 3.6665)" fill="white"/>
<ellipse rx="0.666667" ry="1" transform="matrix(1 0 0 -1 12.6667 6.3335)" fill="white"/>
<ellipse rx="0.666667" ry="1" transform="matrix(1 0 0 -1 12.6667 9)" fill="white"/>
<ellipse rx="0.666667" ry="1" transform="matrix(1 0 0 -1 12.6667 11.6665)" fill="white"/>
</g>
<defs>
<clipPath id="clip0_5022_6302">
<rect width="16" height="16" fill="white"/>
</clipPath>
</defs>
</svg>
