<svg width="15" height="14" viewBox="0 0 15 14" fill="none" xmlns="http://www.w3.org/2000/svg">
<path d="M5.78632 2.42829H8.88156C8.88156 2.04941 8.71851 1.68605 8.42827 1.41814C8.13804 1.15023 7.74439 0.999721 7.33394 0.999721C6.92348 0.999721 6.52984 1.15023 6.23961 1.41814C5.94937 1.68605 5.78632 2.04941 5.78632 2.42829ZM4.85775 2.42829C4.85775 1.82208 5.11863 1.2407 5.58301 0.812048C6.04738 0.383394 6.67721 0.142578 7.33394 0.142578C7.99067 0.142578 8.62049 0.383394 9.08487 0.812048C9.54925 1.2407 9.81013 1.82208 9.81013 2.42829H13.6792C13.8023 2.42829 13.9204 2.47345 14.0075 2.55382C14.0945 2.63419 14.1435 2.7432 14.1435 2.85686C14.1435 2.97053 14.0945 3.07954 14.0075 3.15991C13.9204 3.24028 13.8023 3.28544 13.6792 3.28544H12.8682L12.1148 11.63C12.06 12.2371 11.7601 12.8029 11.2745 13.2154C10.7889 13.6279 10.1531 13.8568 9.49318 13.8569H5.1747C4.51479 13.8568 3.879 13.6279 3.39339 13.2154C2.90779 12.8029 2.60784 12.2371 2.55303 11.63L1.79965 3.28544H0.9887C0.865564 3.28544 0.747471 3.24028 0.6604 3.15991C0.57333 3.07954 0.524414 2.97053 0.524414 2.85686C0.524414 2.7432 0.57333 2.63419 0.6604 2.55382C0.747471 2.47345 0.865564 2.42829 0.9887 2.42829H4.85775ZM6.40537 5.71401C6.40537 5.60034 6.35645 5.49133 6.26938 5.41096C6.18231 5.33059 6.06422 5.28544 5.94108 5.28544C5.81795 5.28544 5.69985 5.33059 5.61278 5.41096C5.52571 5.49133 5.4768 5.60034 5.4768 5.71401V10.5711C5.4768 10.6848 5.52571 10.7938 5.61278 10.8742C5.69985 10.9546 5.81795 10.9997 5.94108 10.9997C6.06422 10.9997 6.18231 10.9546 6.26938 10.8742C6.35645 10.7938 6.40537 10.6848 6.40537 10.5711V5.71401ZM8.7268 5.28544C8.60366 5.28544 8.48557 5.33059 8.3985 5.41096C8.31143 5.49133 8.26251 5.60034 8.26251 5.71401V10.5711C8.26251 10.6848 8.31143 10.7938 8.3985 10.8742C8.48557 10.9546 8.60366 10.9997 8.7268 10.9997C8.84993 10.9997 8.96803 10.9546 9.0551 10.8742C9.14217 10.7938 9.19108 10.6848 9.19108 10.5711V5.71401C9.19108 5.60034 9.14217 5.49133 9.0551 5.41096C8.96803 5.33059 8.84993 5.28544 8.7268 5.28544Z" fill="#FF3636"/>
</svg>
