<svg width="16" height="20" viewBox="0 0 16 20" fill="none" xmlns="http://www.w3.org/2000/svg">
<path d="M3 5.5C3 2.73858 5.23858 0.5 8 0.5C10.7614 0.5 13 2.73858 13 5.5C13 8.26142 10.7614 10.5 8 10.5C5.23858 10.5 3 8.26142 3 5.5ZM8 8.5C9.65685 8.5 11 7.15685 11 5.5C11 3.84315 9.65685 2.5 8 2.5C6.34315 2.5 5 3.84315 5 5.5C5 7.15685 6.34315 8.5 8 8.5Z" fill="#2E3A59"/>
<path d="M2.34315 13.8431C0.842855 15.3434 0 17.3783 0 19.5H2C2 17.9087 2.63214 16.3826 3.75736 15.2574C4.88258 14.1321 6.4087 13.5 8 13.5C9.5913 13.5 11.1174 14.1321 12.2426 15.2574C13.3679 16.3826 14 17.9087 14 19.5H16C16 17.3783 15.1571 15.3434 13.6569 13.8431C12.1566 12.3429 10.1217 11.5 8 11.5C5.87827 11.5 3.84344 12.3429 2.34315 13.8431Z" fill="#2E3A59"/>
</svg>
