<svg width="70" height="70" viewBox="0 0 70 70" fill="none" xmlns="http://www.w3.org/2000/svg">
<path d="M67.5355 34.9991C68.6166 33.7402 69.3741 32.2366 69.7425 30.6186C70.1109 29.0006 70.0789 27.3172 69.6494 25.7144C69.2199 24.1116 68.4058 22.6377 67.2777 21.4208C66.1497 20.2038 64.7418 19.2805 63.1761 18.7308C63.4828 17.1 63.3871 15.4189 62.897 13.8335C62.407 12.248 61.5375 10.8061 60.3641 9.63277C59.1906 8.45944 57.7485 7.59016 56.163 7.10034C54.5775 6.61052 52.8965 6.51496 51.2657 6.82195C50.7165 5.25589 49.7933 3.84756 48.5763 2.71923C47.3593 1.5909 45.8853 0.776682 44.2822 0.347258C42.6792 -0.0821654 40.9955 -0.11381 39.3775 0.255072C37.7594 0.623954 36.2559 1.38221 34.9974 2.46401C33.7385 1.38296 32.2348 0.625382 30.6168 0.257009C28.9989 -0.111363 27.3154 -0.0794065 25.7126 0.350105C24.1098 0.779616 22.636 1.59371 21.419 2.72177C20.202 3.84982 19.2787 5.25777 18.729 6.82347C17.0983 6.51697 15.4174 6.61296 13.8322 7.10311C12.2469 7.59326 10.8052 8.46276 9.6321 9.6362C8.45896 10.8096 7.58983 12.2516 7.10008 13.8369C6.61034 15.4223 6.51478 17.1032 6.82169 18.7338C5.25599 19.2835 3.84804 20.2068 2.71998 21.4238C1.59193 22.6408 0.77783 24.1146 0.348318 25.7174C-0.0811933 27.3202 -0.113154 29.0037 0.255218 30.6216C0.62359 32.2396 1.38118 33.7432 2.46224 35.0022C1.38085 36.261 0.623029 37.7648 0.254552 39.3829C-0.113925 41.0011 -0.0819368 42.6847 0.347763 44.2876C0.777462 45.8906 1.59188 47.3645 2.72032 48.5813C3.84876 49.7982 5.25715 50.7213 6.82321 51.2705C6.51604 52.9012 6.61148 54.5822 7.10129 56.1676C7.59109 57.7531 8.46045 59.195 9.63388 60.3683C10.8073 61.5416 12.2494 62.4107 13.8349 62.9003C15.4204 63.3899 17.1014 63.4852 18.7321 63.1778C19.2817 64.7435 20.2051 66.1515 21.422 67.2795C22.639 68.4076 24.1128 69.2217 25.7156 69.6512C27.3185 70.0807 29.0019 70.1126 30.6198 69.7443C32.2378 69.3759 33.7415 68.6183 35.0004 67.5373C36.2593 68.6186 37.763 69.3765 39.3812 69.7449C40.9993 70.1134 42.6829 70.0814 44.2859 69.6517C45.8888 69.222 47.3627 68.4076 48.5796 67.2792C49.7964 66.1507 50.7195 64.7424 51.2687 63.1763C52.8995 63.4834 54.5805 63.3879 56.166 62.8981C57.7514 62.4082 59.1934 61.5389 60.3668 60.3655C61.5402 59.1922 62.4095 57.7502 62.8993 56.1647C63.3891 54.5792 63.4846 52.8982 63.1776 51.2674C64.7434 50.7179 66.1514 49.7946 67.2796 48.5776C68.4077 47.3606 69.2217 45.8866 69.6511 44.2837C70.0805 42.6808 70.1122 40.9973 69.7436 39.3793C69.3749 37.7613 68.617 36.2578 67.5355 34.9991V34.9991Z" fill="#E5322B"/>
</svg>
