<svg width="70" height="70" viewBox="0 0 70 70" fill="none" xmlns="http://www.w3.org/2000/svg">
<path d="M67.5375 34.9991C68.6185 33.7402 69.3761 32.2366 69.7445 30.6186C70.1128 29.0006 70.0809 27.3172 69.6514 25.7144C69.2218 24.1116 68.4078 22.6377 67.2797 21.4208C66.1516 20.2038 64.7437 19.2805 63.178 18.7308C63.4848 17.1 63.389 15.4189 62.899 13.8335C62.409 12.248 61.5395 10.8061 60.366 9.63277C59.1925 8.45944 57.7505 7.59016 56.165 7.10034C54.5795 6.61052 52.8984 6.51496 51.2676 6.82195C50.7184 5.25589 49.7952 3.84756 48.5782 2.71923C47.3613 1.5909 45.8873 0.776682 44.2842 0.347258C42.6811 -0.0821654 40.9975 -0.11381 39.3794 0.255072C37.7614 0.623954 36.2578 1.38221 34.9993 2.46401C33.7404 1.38296 32.2368 0.625382 30.6188 0.257009C29.0008 -0.111363 27.3174 -0.0794065 25.7146 0.350105C24.1117 0.779616 22.6379 1.59371 21.421 2.72177C20.204 3.84982 19.2806 5.25777 18.731 6.82346C17.1003 6.51697 15.4194 6.61296 13.8341 7.10311C12.2489 7.59326 10.8072 8.46276 9.63406 9.6362C8.46092 10.8096 7.59178 12.2516 7.10204 13.8369C6.61229 15.4223 6.51673 17.1032 6.82364 18.7338C5.25795 19.2835 3.84999 20.2068 2.72194 21.4238C1.59388 22.6408 0.779783 24.1146 0.350271 25.7174C-0.0792401 27.3202 -0.111201 29.0037 0.257171 30.6216C0.625544 32.2396 1.38313 33.7432 2.46419 35.0022C1.3828 36.261 0.624982 37.7648 0.256505 39.3829C-0.111972 41.0011 -0.0799836 42.6847 0.349716 44.2876C0.779416 45.8906 1.59383 47.3645 2.72227 48.5813C3.85071 49.7982 5.2591 50.7213 6.82516 51.2705C6.51799 52.9012 6.61344 54.5822 7.10324 56.1676C7.59304 57.7531 8.4624 59.195 9.63583 60.3683C10.8093 61.5416 12.2513 62.4107 13.8368 62.9003C15.4223 63.3899 17.1034 63.4852 18.734 63.1778C19.2837 64.7435 20.207 66.1515 21.424 67.2795C22.641 68.4076 24.1148 69.2217 25.7176 69.6512C27.3204 70.0807 29.0038 70.1126 30.6218 69.7443C32.2398 69.3759 33.7434 68.6183 35.0023 67.5373C36.2612 68.6186 37.765 69.3765 39.3831 69.7449C41.0012 70.1134 42.6848 70.0814 44.2878 69.6517C45.8908 69.222 47.3647 68.4076 48.5815 67.2792C49.7984 66.1507 50.7215 64.7423 51.2707 63.1763C52.9014 63.4834 54.5824 63.3879 56.1679 62.8981C57.7534 62.4082 59.1954 61.5389 60.3688 60.3655C61.5421 59.1922 62.4115 57.7502 62.9013 56.1647C63.3911 54.5792 63.4866 52.8982 63.1795 51.2674C64.7453 50.7179 66.1534 49.7946 67.2815 48.5776C68.4096 47.3606 69.2237 45.8866 69.6531 44.2837C70.0825 42.6808 70.1142 40.9973 69.7455 39.3793C69.3768 37.7613 68.6189 36.2578 67.5375 34.9991Z" fill="#18C07A"/>
</svg>
