<svg width="344" height="175" viewBox="0 0 344 175" fill="none" xmlns="http://www.w3.org/2000/svg">
<g clip-path="url(#clip0_5898_141028)">
<path d="M-159.582 137.527C-58.2814 225.977 226.864 348.61 557.042 131.541C969.765 -139.794 -470.783 -272.137 -159.582 137.527Z" fill="#DEE7E5"/>
<path d="M377.464 130.299V140.701C377.464 156.332 364.296 168.118 345.851 174.152C339.673 176.155 333.193 177.5 326.578 178.155C318.673 178.955 310.713 179.479 302.206 179.764C275.731 180.654 243.967 179.243 192.199 176.64C158.601 174.948 95.3027 177.185 54.1705 177.941C48.2819 178.05 42.8469 178.129 38.02 178.16C27.5695 178.229 17.8604 175.93 9.77862 171.951C-3.89254 165.217 -12.8847 153.695 -12.8847 140.701L-57.0752 117.811C-13.132 108.452 70.6383 111.955 149.884 111.955C183.763 124.765 303.108 99.9811 345.851 106.099C353.318 107.169 396.668 107.088 403.242 108.295C408.274 109.219 372.989 129.299 377.464 130.299Z" fill="#CFD3A3"/>
<path d="M59.9478 63.0678H28.6533V175.03H59.9478V63.0678Z" fill="#2A426A"/>
<path d="M47.5149 63.0678H28.6533V175.03H47.5149V63.0678Z" fill="#4F8B7D"/>
<path d="M59.9478 67.5751H28.6533V68.9025H59.9478V67.5751Z" fill="#FFFDFF"/>
<path d="M59.9478 75.399H28.6533V76.7265H59.9478V75.399Z" fill="#FFFDFF"/>
<path d="M59.9478 83.2232H28.6533V84.5506H59.9478V83.2232Z" fill="#FFFDFF"/>
<path d="M59.9478 91.0471H28.6533V92.3745H59.9478V91.0471Z" fill="#FFFDFF"/>
<path d="M59.9478 98.8713H28.6533V100.199H59.9478V98.8713Z" fill="#FFFDFF"/>
<path d="M59.9478 106.692H28.6533V108.019H59.9478V106.692Z" fill="#FFFDFF"/>
<path d="M59.9478 114.516H28.6533V115.843H59.9478V114.516Z" fill="#FFFDFF"/>
<path d="M59.9478 122.34H28.6533V123.667H59.9478V122.34Z" fill="#FFFDFF"/>
<path d="M59.9478 130.164H28.6533V131.491H59.9478V130.164Z" fill="#FFFDFF"/>
<path d="M59.9478 137.988H28.6533V139.315H59.9478V137.988Z" fill="#FFFDFF"/>
<path d="M59.9478 145.812H28.6533V147.139H59.9478V145.812Z" fill="#FFFDFF"/>
<path d="M59.9478 153.632H28.6533V154.96H59.9478V153.632Z" fill="#FFFDFF"/>
<path d="M59.9478 161.456H28.6533V162.783H59.9478V161.456Z" fill="#FFFDFF"/>
<path d="M59.9475 67.5751H47.5146V68.9025H59.9475V67.5751Z" fill="#B4D399"/>
<path d="M59.9475 75.3991H47.5146V76.7265H59.9475V75.3991Z" fill="#B4D399"/>
<path d="M59.9475 83.2231H47.5146V84.5506H59.9475V83.2231Z" fill="#B4D399"/>
<path d="M59.9475 91.0472H47.5146V92.3746H59.9475V91.0472Z" fill="#B4D399"/>
<path d="M59.9475 98.8712H47.5146V100.199H59.9475V98.8712Z" fill="#B4D399"/>
<path d="M59.9475 106.692H47.5146V108.019H59.9475V106.692Z" fill="#B4D399"/>
<path d="M59.9475 114.516H47.5146V115.843H59.9475V114.516Z" fill="#B4D399"/>
<path d="M59.9475 122.34H47.5146V123.667H59.9475V122.34Z" fill="#B4D399"/>
<path d="M59.9475 130.164H47.5146V131.491H59.9475V130.164Z" fill="#B4D399"/>
<path d="M59.9475 137.988H47.5146V139.315H59.9475V137.988Z" fill="#B4D399"/>
<path d="M59.9475 145.812H47.5146V147.139H59.9475V145.812Z" fill="#B4D399"/>
<path d="M59.9475 153.632H47.5146V154.96H59.9475V153.632Z" fill="#B4D399"/>
<path d="M59.9475 161.456H47.5146V162.784H59.9475V161.456Z" fill="#B4D399"/>
<path d="M241.685 89.1208H228.256V175.03H241.685V89.1208Z" fill="#2A426A"/>
<path d="M228.439 89.1208H208.344V175.03H228.439V89.1208Z" fill="#B4D399"/>
<path d="M241.685 92.578H208.344V93.5948H241.685V92.578Z" fill="#FFFDFF"/>
<path d="M241.685 98.5828H208.344V99.5997H241.685V98.5828Z" fill="#FFFDFF"/>
<path d="M241.685 104.584H208.344V105.601H241.685V104.584Z" fill="#FFFDFF"/>
<path d="M241.685 110.589H208.344V111.606H241.685V110.589Z" fill="#FFFDFF"/>
<path d="M241.685 116.59H208.344V117.607H241.685V116.59Z" fill="#FFFDFF"/>
<path d="M241.685 122.595H208.344V123.612H241.685V122.595Z" fill="#FFFDFF"/>
<path d="M241.685 128.596H208.344V129.613H241.685V128.596Z" fill="#FFFDFF"/>
<path d="M241.685 134.601H208.344V135.618H241.685V134.601Z" fill="#FFFDFF"/>
<path d="M241.685 140.602H208.344V141.619H241.685V140.602Z" fill="#FFFDFF"/>
<path d="M241.685 146.607H208.344V147.624H241.685V146.607Z" fill="#FFFDFF"/>
<path d="M241.685 152.608H208.344V153.625H241.685V152.608Z" fill="#FFFDFF"/>
<path d="M241.685 158.613H208.344V159.629H241.685V158.613Z" fill="#FFFDFF"/>
<path d="M241.685 164.614H208.344V165.631H241.685V164.614Z" fill="#FFFDFF"/>
<path d="M241.685 92.578H228.439V93.5948H241.685V92.578Z" fill="#B4D399"/>
<path d="M241.685 98.5828H228.439V99.5997H241.685V98.5828Z" fill="#B4D399"/>
<path d="M241.685 104.584H228.439V105.601H241.685V104.584Z" fill="#B4D399"/>
<path d="M241.685 110.589H228.439V111.606H241.685V110.589Z" fill="#B4D399"/>
<path d="M241.685 116.59H228.439V117.607H241.685V116.59Z" fill="#B4D399"/>
<path d="M241.685 122.595H228.439V123.612H241.685V122.595Z" fill="#B4D399"/>
<path d="M241.685 128.596H228.439V129.613H241.685V128.596Z" fill="#B4D399"/>
<path d="M241.685 134.601H228.439V135.618H241.685V134.601Z" fill="#B4D399"/>
<path d="M241.685 140.602H228.439V141.619H241.685V140.602Z" fill="#B4D399"/>
<path d="M241.685 146.607H228.439V147.624H241.685V146.607Z" fill="#B4D399"/>
<path d="M241.685 152.608H228.439V153.625H241.685V152.608Z" fill="#B4D399"/>
<path d="M241.685 158.613H228.439V159.629H241.685V158.613Z" fill="#B4D399"/>
<path d="M241.685 164.614H228.439V165.631H241.685V164.614Z" fill="#B4D399"/>
<path d="M216.118 97.0816H204.066V175.03H216.118V97.0816Z" fill="#2A426A"/>
<path d="M204.102 97.0817H185.866V175.03H204.102V97.0817Z" fill="#B4D399"/>
<path d="M202.174 99.7512H187.402V101.437H202.174V99.7512Z" fill="#FFFDFF"/>
<path d="M214.974 99.7512H205.62V101.437H214.974V99.7512Z" fill="#B4D399"/>
<path d="M202.174 103.464H187.402V105.15H202.174V103.464Z" fill="#FFFDFF"/>
<path d="M214.974 103.464H205.62V105.15H214.974V103.464Z" fill="#B4D399"/>
<path d="M202.174 107.176H187.402V108.862H202.174V107.176Z" fill="#FFFDFF"/>
<path d="M214.974 107.176H205.62V108.862H214.974V107.176Z" fill="#B4D399"/>
<path d="M202.174 110.885H187.402V112.571H202.174V110.885Z" fill="#FFFDFF"/>
<path d="M214.974 110.885H205.62V112.571H214.974V110.885Z" fill="#B4D399"/>
<path d="M202.174 114.597H187.402V116.283H202.174V114.597Z" fill="#FFFDFF"/>
<path d="M214.974 114.597H205.62V116.283H214.974V114.597Z" fill="#B4D399"/>
<path d="M202.174 118.309H187.402V119.995H202.174V118.309Z" fill="#FFFDFF"/>
<path d="M214.974 118.309H205.62V119.995H214.974V118.309Z" fill="#B4D399"/>
<path d="M202.174 122.018H187.402V123.704H202.174V122.018Z" fill="#FFFDFF"/>
<path d="M214.974 122.018H205.62V123.704H214.974V122.018Z" fill="#B4D399"/>
<path d="M202.174 125.73H187.402V127.416H202.174V125.73Z" fill="#FFFDFF"/>
<path d="M214.974 125.73H205.62V127.416H214.974V125.73Z" fill="#B4D399"/>
<path d="M202.174 129.443H187.402V131.129H202.174V129.443Z" fill="#FFFDFF"/>
<path d="M214.974 129.443H205.62V131.129H214.974V129.443Z" fill="#B4D399"/>
<path d="M202.174 133.151H187.402V134.837H202.174V133.151Z" fill="#FFFDFF"/>
<path d="M214.974 133.151H205.62V134.837H214.974V133.151Z" fill="#B4D399"/>
<path d="M202.174 136.864H187.402V138.55H202.174V136.864Z" fill="#FFFDFF"/>
<path d="M214.974 136.864H205.62V138.55H214.974V136.864Z" fill="#B4D399"/>
<path d="M202.174 140.576H187.402V142.262H202.174V140.576Z" fill="#FFFDFF"/>
<path d="M214.974 140.576H205.62V142.262H214.974V140.576Z" fill="#B4D399"/>
<path d="M202.174 144.288H187.402V145.974H202.174V144.288Z" fill="#FFFDFF"/>
<path d="M214.974 144.288H205.62V145.974H214.974V144.288Z" fill="#B4D399"/>
<path d="M202.174 147.997H187.402V149.683H202.174V147.997Z" fill="#FFFDFF"/>
<path d="M214.974 147.997H205.62V149.683H214.974V147.997Z" fill="#B4D399"/>
<path d="M202.174 151.709H187.402V153.395H202.174V151.709Z" fill="#FFFDFF"/>
<path d="M214.974 151.709H205.62V153.395H214.974V151.709Z" fill="#B4D399"/>
<path d="M92.2633 92.6741H56.6699V175.925H92.2633V92.6741Z" fill="#2A426A"/>
<path d="M78.1253 92.6741H56.6699V175.925H78.1253V92.6741Z" fill="#7FAFAF"/>
<path d="M60.6273 96.0426H58.3213V98.8454H60.6273V96.0426Z" fill="#FFFDFF"/>
<path d="M65.7181 96.0427H63.4121V98.8454H65.7181V96.0427Z" fill="#FFFDFF"/>
<path d="M70.8079 96.0426H68.502V98.8454H70.8079V96.0426Z" fill="#FFFDFF"/>
<path d="M75.8949 96.0427H73.5889V98.8454H75.8949V96.0427Z" fill="#FFFDFF"/>
<path d="M60.6273 103.722H58.3213V106.525H60.6273V103.722Z" fill="#FFFDFF"/>
<path d="M65.7181 103.722H63.4121V106.525H65.7181V103.722Z" fill="#FFFDFF"/>
<path d="M70.8079 103.722H68.502V106.525H70.8079V103.722Z" fill="#FFFDFF"/>
<path d="M75.8949 103.722H73.5889V106.525H75.8949V103.722Z" fill="#FFFDFF"/>
<path d="M60.6273 111.402H58.3213V114.205H60.6273V111.402Z" fill="#FFFDFF"/>
<path d="M65.7181 111.402H63.4121V114.205H65.7181V111.402Z" fill="#FFFDFF"/>
<path d="M70.8079 111.402H68.502V114.205H70.8079V111.402Z" fill="#FFFDFF"/>
<path d="M75.8949 111.402H73.5889V114.205H75.8949V111.402Z" fill="#FFFDFF"/>
<path d="M60.6273 119.082H58.3213V121.885H60.6273V119.082Z" fill="#FFFDFF"/>
<path d="M65.7181 119.082H63.4121V121.885H65.7181V119.082Z" fill="#FFFDFF"/>
<path d="M70.8079 119.082H68.502V121.885H70.8079V119.082Z" fill="#FFFDFF"/>
<path d="M75.8949 119.082H73.5889V121.885H75.8949V119.082Z" fill="#FFFDFF"/>
<path d="M60.6273 126.766H58.3213V129.568H60.6273V126.766Z" fill="#FFFDFF"/>
<path d="M65.7181 126.766H63.4121V129.568H65.7181V126.766Z" fill="#FFFDFF"/>
<path d="M70.8079 126.766H68.502V129.568H70.8079V126.766Z" fill="#FFFDFF"/>
<path d="M75.8949 126.766H73.5889V129.568H75.8949V126.766Z" fill="#FFFDFF"/>
<path d="M60.6273 134.445H58.3213V137.248H60.6273V134.445Z" fill="#FFFDFF"/>
<path d="M65.7181 134.445H63.4121V137.248H65.7181V134.445Z" fill="#FFFDFF"/>
<path d="M70.8079 134.445H68.502V137.248H70.8079V134.445Z" fill="#FFFDFF"/>
<path d="M75.8949 134.445H73.5889V137.248H75.8949V134.445Z" fill="#FFFDFF"/>
<path d="M60.6273 142.125H58.3213V144.928H60.6273V142.125Z" fill="#FFFDFF"/>
<path d="M65.7181 142.125H63.4121V144.928H65.7181V142.125Z" fill="#FFFDFF"/>
<path d="M70.8079 142.125H68.502V144.928H70.8079V142.125Z" fill="#FFFDFF"/>
<path d="M75.8949 142.125H73.5889V144.928H75.8949V142.125Z" fill="#FFFDFF"/>
<path d="M60.6273 149.805H58.3213V152.608H60.6273V149.805Z" fill="#FFFDFF"/>
<path d="M65.7181 149.805H63.4121V152.608H65.7181V149.805Z" fill="#FFFDFF"/>
<path d="M70.8079 149.805H68.502V152.608H70.8079V149.805Z" fill="#FFFDFF"/>
<path d="M75.8949 149.805H73.5889V152.608H75.8949V149.805Z" fill="#FFFDFF"/>
<path d="M117.137 79.3H89.8467V115.266H117.137V79.3Z" fill="#2A426A"/>
<path d="M118.313 82.014H88.6699V121.079H118.313V82.014Z" fill="#4F8B7D"/>
<path d="M106.539 82.014H88.6699V121.079H106.539V82.014Z" fill="#B4D399"/>
<path d="M91.9689 84.9721H90.0479V87.0316H91.9689V84.9721Z" fill="#FFFDFF"/>
<path d="M96.2062 84.972H94.2852V87.0316H96.2062V84.972Z" fill="#FFFDFF"/>
<path d="M100.444 84.972H98.5234V87.0316H100.444V84.972Z" fill="#FFFDFF"/>
<path d="M104.682 84.972H102.761V87.0316H104.682V84.972Z" fill="#FFFDFF"/>
<path d="M91.9689 90.6146H90.0479V92.6741H91.9689V90.6146Z" fill="#FFFDFF"/>
<path d="M96.2062 90.6147H94.2852V92.6742H96.2062V90.6147Z" fill="#FFFDFF"/>
<path d="M100.444 90.6147H98.5234V92.6742H100.444V90.6147Z" fill="#FFFDFF"/>
<path d="M104.682 90.6147H102.761V92.6742H104.682V90.6147Z" fill="#FFFDFF"/>
<path d="M91.9689 96.2534H90.0479V98.3129H91.9689V96.2534Z" fill="#FFFDFF"/>
<path d="M96.2062 96.2534H94.2852V98.3129H96.2062V96.2534Z" fill="#FFFDFF"/>
<path d="M100.444 96.2534H98.5234V98.3129H100.444V96.2534Z" fill="#FFFDFF"/>
<path d="M104.682 96.2534H102.761V98.3129H104.682V96.2534Z" fill="#FFFDFF"/>
<path d="M91.9689 101.896H90.0479V103.955H91.9689V101.896Z" fill="#FFFDFF"/>
<path d="M96.2062 101.896H94.2852V103.955H96.2062V101.896Z" fill="#FFFDFF"/>
<path d="M100.444 101.896H98.5234V103.955H100.444V101.896Z" fill="#FFFDFF"/>
<path d="M104.682 101.896H102.761V103.955H104.682V101.896Z" fill="#FFFDFF"/>
<path d="M119.759 107.897H87.2197V175.03H119.759V107.897Z" fill="#4F8B7D"/>
<path d="M106.833 107.897H87.2197V175.03H106.833V107.897Z" fill="#B4D399"/>
<path d="M90.8396 110.615H88.7314V112.878H90.8396V110.615Z" fill="#FFFDFF"/>
<path d="M95.4939 110.615H93.3857V112.878H95.4939V110.615Z" fill="#FFFDFF"/>
<path d="M100.146 110.615H98.0381V112.878H100.146V110.615Z" fill="#FFFDFF"/>
<path d="M104.798 110.615H102.689V112.878H104.798V110.615Z" fill="#FFFDFF"/>
<path d="M90.8396 116.808H88.7314V119.071H90.8396V116.808Z" fill="#FFFDFF"/>
<path d="M95.4939 116.808H93.3857V119.071H95.4939V116.808Z" fill="#FFFDFF"/>
<path d="M100.146 116.808H98.0381V119.071H100.146V116.808Z" fill="#FFFDFF"/>
<path d="M104.798 116.808H102.689V119.071H104.798V116.808Z" fill="#FFFDFF"/>
<path d="M90.8396 123.002H88.7314V125.264H90.8396V123.002Z" fill="#FFFDFF"/>
<path d="M95.4939 123.001H93.3857V125.264H95.4939V123.001Z" fill="#FFFDFF"/>
<path d="M100.146 123.001H98.0381V125.264H100.146V123.001Z" fill="#FFFDFF"/>
<path d="M104.798 123.002H102.689V125.264H104.798V123.002Z" fill="#FFFDFF"/>
<path d="M90.8396 129.195H88.7314V131.458H90.8396V129.195Z" fill="#FFFDFF"/>
<path d="M95.4939 129.195H93.3857V131.458H95.4939V129.195Z" fill="#FFFDFF"/>
<path d="M100.146 129.195H98.0381V131.458H100.146V129.195Z" fill="#FFFDFF"/>
<path d="M104.798 129.195H102.689V131.458H104.798V129.195Z" fill="#FFFDFF"/>
<path d="M90.8396 135.388H88.7314V137.651H90.8396V135.388Z" fill="#FFFDFF"/>
<path d="M95.4939 135.388H93.3857V137.651H95.4939V135.388Z" fill="#FFFDFF"/>
<path d="M100.146 135.388H98.0381V137.651H100.146V135.388Z" fill="#FFFDFF"/>
<path d="M104.798 135.388H102.689V137.651H104.798V135.388Z" fill="#FFFDFF"/>
<path d="M90.8396 141.582H88.7314V143.845H90.8396V141.582Z" fill="#FFFDFF"/>
<path d="M95.4939 141.582H93.3857V143.845H95.4939V141.582Z" fill="#FFFDFF"/>
<path d="M100.146 141.582H98.0381V143.845H100.146V141.582Z" fill="#FFFDFF"/>
<path d="M104.798 141.582H102.689V143.845H104.798V141.582Z" fill="#FFFDFF"/>
<path d="M90.8396 147.775H88.7314V150.038H90.8396V147.775Z" fill="#FFFDFF"/>
<path d="M95.4939 147.775H93.3857V150.038H95.4939V147.775Z" fill="#FFFDFF"/>
<path d="M100.146 147.775H98.0381V150.038H100.146V147.775Z" fill="#FFFDFF"/>
<path d="M104.798 147.775H102.689V150.038H104.798V147.775Z" fill="#FFFDFF"/>
<path d="M90.8396 153.969H88.7314V156.231H90.8396V153.969Z" fill="#FFFDFF"/>
<path d="M95.4939 153.969H93.3857V156.231H95.4939V153.969Z" fill="#FFFDFF"/>
<path d="M100.146 153.969H98.0381V156.231H100.146V153.969Z" fill="#FFFDFF"/>
<path d="M104.798 153.969H102.689V156.231H104.798V153.969Z" fill="#FFFDFF"/>
<path d="M153.172 117.426H115.298V176.513H153.172V117.426Z" fill="#2A426A"/>
<path d="M138.127 117.426H115.298V176.513H138.127V117.426Z" fill="#8CA575"/>
<path d="M135.721 119.448H117.227V120.727H135.721V119.448Z" fill="#FFFDFF"/>
<path d="M151.748 119.448H140.034V120.727H151.748V119.448Z" fill="#B4D399"/>
<path d="M135.721 122.262H117.227V123.541H135.721V122.262Z" fill="#FFFDFF"/>
<path d="M151.748 122.262H140.034V123.541H151.748V122.262Z" fill="#B4D399"/>
<path d="M135.721 125.076H117.227V126.355H135.721V125.076Z" fill="#FFFDFF"/>
<path d="M151.748 125.076H140.034V126.355H151.748V125.076Z" fill="#B4D399"/>
<path d="M135.721 127.89H117.227V129.169H135.721V127.89Z" fill="#FFFDFF"/>
<path d="M151.748 127.89H140.034V129.169H151.748V127.89Z" fill="#B4D399"/>
<path d="M135.721 130.7H117.227V131.979H135.721V130.7Z" fill="#FFFDFF"/>
<path d="M151.748 130.7H140.034V131.979H151.748V130.7Z" fill="#B4D399"/>
<path d="M135.721 133.514H117.227V134.793H135.721V133.514Z" fill="#FFFDFF"/>
<path d="M151.748 133.514H140.034V134.793H151.748V133.514Z" fill="#B4D399"/>
<path d="M135.721 136.328H117.227V137.607H135.721V136.328Z" fill="#FFFDFF"/>
<path d="M151.748 136.328H140.034V137.607H151.748V136.328Z" fill="#B4D399"/>
<path d="M135.721 139.141H117.227V140.421H135.721V139.141Z" fill="#FFFDFF"/>
<path d="M151.748 139.141H140.034V140.421H151.748V139.141Z" fill="#B4D399"/>
<path d="M135.721 141.955H117.227V143.234H135.721V141.955Z" fill="#FFFDFF"/>
<path d="M151.748 141.955H140.034V143.234H151.748V141.955Z" fill="#B4D399"/>
<path d="M135.721 144.769H117.227V146.048H135.721V144.769Z" fill="#FFFDFF"/>
<path d="M151.748 144.769H140.034V146.048H151.748V144.769Z" fill="#B4D399"/>
<path d="M135.721 147.579H117.227V148.858H135.721V147.579Z" fill="#FFFDFF"/>
<path d="M151.748 147.579H140.034V148.858H151.748V147.579Z" fill="#B4D399"/>
<path d="M135.721 150.393H117.227V151.672H135.721V150.393Z" fill="#FFFDFF"/>
<path d="M151.748 150.393H140.034V151.672H151.748V150.393Z" fill="#B4D399"/>
<path d="M135.721 153.207H117.227V154.486H135.721V153.207Z" fill="#FFFDFF"/>
<path d="M151.748 153.207H140.034V154.486H151.748V153.207Z" fill="#B4D399"/>
<path d="M135.721 156.021H117.227V157.3H135.721V156.021Z" fill="#FFFDFF"/>
<path d="M151.748 156.021H140.034V157.3H151.748V156.021Z" fill="#B4D399"/>
<path d="M135.721 158.835H117.227V160.114H135.721V158.835Z" fill="#FFFDFF"/>
<path d="M151.748 158.835H140.034V160.114H151.748V158.835Z" fill="#B4D399"/>
<path d="M270.68 175.03H237.954V54.1271H257.679L270.68 68.8323V175.03Z" fill="#2A426A"/>
<path d="M257.679 54.1271H237.954V175.03H257.679V54.1271Z" fill="#7FAFAF"/>
<path d="M255.6 59.7067H239.62V62.4059H255.6V59.7067Z" fill="#FFFDFF"/>
<path d="M255.6 65.645H239.62V68.3442H255.6V65.645Z" fill="#FFFDFF"/>
<path d="M255.6 71.5833H239.62V74.2825H255.6V71.5833Z" fill="#FFFDFF"/>
<path d="M255.6 77.5252H239.62V80.2244H255.6V77.5252Z" fill="#FFFDFF"/>
<path d="M255.6 83.4635H239.62V86.1627H255.6V83.4635Z" fill="#FFFDFF"/>
<path d="M255.6 89.4018H239.62V92.101H255.6V89.4018Z" fill="#FFFDFF"/>
<path d="M255.6 95.3401H239.62V98.0393H255.6V95.3401Z" fill="#FFFDFF"/>
<path d="M255.6 101.282H239.62V103.981H255.6V101.282Z" fill="#FFFDFF"/>
<path d="M255.6 107.22H239.62V109.92H255.6V107.22Z" fill="#FFFDFF"/>
<path d="M255.6 113.159H239.62V115.858H255.6V113.159Z" fill="#FFFDFF"/>
<path d="M255.6 119.097H239.62V121.796H255.6V119.097Z" fill="#FFFDFF"/>
<path d="M255.6 125.039H239.62V127.738H255.6V125.039Z" fill="#FFFDFF"/>
<path d="M255.6 130.977H239.62V133.676H255.6V130.977Z" fill="#FFFDFF"/>
<path d="M255.6 136.915H239.62V139.615H255.6V136.915Z" fill="#FFFDFF"/>
<path d="M255.6 142.857H239.62V145.557H255.6V142.857Z" fill="#FFFDFF"/>
<path d="M307.26 175.03H290.478V62.4059L307.26 76.1053V175.03Z" fill="#2A426A"/>
<path d="M290.478 62.4059H269.645V175.03H290.478V62.4059Z" fill="#B4D399"/>
<path d="M272.875 67.6047H271.198V147.198H272.875V67.6047Z" fill="#FFFDFF"/>
<path d="M276.911 67.6047H275.234V147.198H276.911V67.6047Z" fill="#FFFDFF"/>
<path d="M280.944 67.6047H279.268V147.198H280.944V67.6047Z" fill="#FFFDFF"/>
<path d="M284.977 67.6047H283.301V147.198H284.977V67.6047Z" fill="#FFFDFF"/>
<path d="M289.009 67.6047H287.333V147.198H289.009V67.6047Z" fill="#FFFDFF"/>
<path d="M294.348 147.198V70.7624L292.668 69.3906V147.198H294.348Z" fill="#97CED1"/>
<path d="M297.907 147.198V73.6649L296.23 72.2968V147.198H297.907Z" fill="#97CED1"/>
<path d="M301.461 147.198V76.5713L299.784 75.1995V147.198H301.461Z" fill="#97CED1"/>
<path d="M305.018 147.198V79.4738L303.342 78.1021V147.198H305.018Z" fill="#97CED1"/>
<path d="M283.743 136.871L277.742 143.039V169.413H283.743H289.747V143.039L283.743 136.871Z" fill="white"/>
<path d="M277.742 143.039H254.168V169.413H277.742V143.039Z" fill="#97CED1"/>
<path d="M260.169 136.871H283.743L277.742 143.038H254.168L260.169 136.871Z" fill="#3B685B"/>
<path d="M257.197 144.806H255.488V147.953H257.197V144.806Z" fill="#2B4369"/>
<path d="M261.018 144.806H259.31V147.953H261.018V144.806Z" fill="#2B4369"/>
<path d="M264.839 144.806H263.13V147.953H264.839V144.806Z" fill="#2B4369"/>
<path d="M268.662 144.806H266.953V147.953H268.662V144.806Z" fill="#2B4369"/>
<path d="M264.839 150.06H263.13V153.207H264.839V150.06Z" fill="#2B4369"/>
<path d="M268.662 150.06H266.953V153.207H268.662V150.06Z" fill="#2B4369"/>
<path d="M272.482 144.806H270.773V147.953H272.482V144.806Z" fill="#2B4369"/>
<path d="M276.303 144.806H274.595V147.953H276.303V144.806Z" fill="#2B4369"/>
<path d="M257.197 150.06H255.488V153.207H257.197V150.06Z" fill="#2B4369"/>
<path d="M261.018 150.06H259.31V153.207H261.018V150.06Z" fill="#2B4369"/>
<path d="M272.482 150.06H270.773V153.207H272.482V150.06Z" fill="#2B4369"/>
<path d="M276.303 150.06H274.595V153.207H276.303V150.06Z" fill="#2B4369"/>
<path d="M280.775 144.806H279.066V147.953H280.775V144.806Z" fill="#B4D399"/>
<path d="M280.775 150.06H279.066V153.207H280.775V150.06Z" fill="#B4D399"/>
<path d="M284.599 144.806H282.891V147.953H284.599V144.806Z" fill="#B4D399"/>
<path d="M288.42 144.806H286.711V147.953H288.42V144.806Z" fill="#B4D399"/>
<path d="M284.599 150.06H282.891V153.207H284.599V150.06Z" fill="#B4D399"/>
<path d="M288.42 150.06H286.711V153.207H288.42V150.06Z" fill="#B4D399"/>
<path d="M258.575 155.311L262.011 158.842V169.413H258.575H255.14V158.842L258.575 155.311Z" fill="#A3C284"/>
<path d="M268.76 158.842H262.011V169.413H268.76V158.842Z" fill="white"/>
<path d="M265.32 155.311H258.575L262.011 158.842H268.76L265.32 155.311Z" fill="#2B4369"/>
<path d="M179.754 136.316L169.782 146.566V175.13H179.754H189.727V146.566L179.754 136.316Z" fill="#97CED1"/>
<path d="M169.782 146.566H156.062V175.13H169.782V146.566Z" fill="#B4D399"/>
<path d="M166.034 136.316H179.755L169.782 146.566H156.062L166.034 136.316Z" fill="#3B685B"/>
<path d="M161.047 149.498H158.205V154.727H161.047V149.498Z" fill="white"/>
<path d="M167.397 149.498H164.555V154.727H167.397V149.498Z" fill="white"/>
<path d="M161.047 158.236H158.205V163.464H161.047V158.236Z" fill="white"/>
<path d="M167.397 158.236H164.555V163.464H167.397V158.236Z" fill="white"/>
<path d="M205.886 151.768L199.886 157.936V175.13H205.886H211.887V157.936L205.886 151.768Z" fill="white"/>
<path d="M199.886 157.936H176.312V175.13H199.886V157.936Z" fill="#B4D399"/>
<path d="M182.312 151.768H205.886L199.886 157.936H176.312L182.312 151.768Z" fill="#3B685B"/>
<path d="M179.341 159.703H177.632V162.85H179.341V159.703Z" fill="#7FAFAF"/>
<path d="M183.161 159.703H181.452V162.85H183.161V159.703Z" fill="#7FAFAF"/>
<path d="M186.981 159.703H185.272V162.85H186.981V159.703Z" fill="#7FAFAF"/>
<path d="M190.803 159.703H189.094V162.85H190.803V159.703Z" fill="#7FAFAF"/>
<path d="M194.627 159.703H192.918V162.85H194.627V159.703Z" fill="#7FAFAF"/>
<path d="M198.447 159.703H196.738V162.85H198.447V159.703Z" fill="#7FAFAF"/>
<path d="M179.341 164.961H177.632V168.108H179.341V164.961Z" fill="#7FAFAF"/>
<path d="M183.161 164.961H181.452V168.108H183.161V164.961Z" fill="#7FAFAF"/>
<path d="M194.627 164.961H192.918V168.108H194.627V164.961Z" fill="#7FAFAF"/>
<path d="M198.447 164.961H196.738V168.108H198.447V164.961Z" fill="#7FAFAF"/>
<path d="M180.715 161.756L184.154 165.287V175.13H180.715H177.279V165.287L180.715 161.756Z" fill="#B4D399"/>
<path d="M190.903 165.287H184.154V175.13H190.903V165.287Z" fill="white"/>
<path d="M187.464 161.756H180.715L184.154 165.287H190.899L187.464 161.756Z" fill="#3B685B"/>
<path d="M72.4742 142.883L66.4736 149.051V166.244H72.4742H78.4748V149.051L72.4742 142.883Z" fill="#ECF8FF"/>
<path d="M66.4698 149.051H42.8955V166.245H66.4698V149.051Z" fill="#B4D399"/>
<path d="M48.8997 142.883H72.474L66.4734 149.051H42.8955L48.8997 142.883Z" fill="#3B685B"/>
<path d="M45.9285 150.818H44.2197V153.965H45.9285V150.818Z" fill="#2B4369"/>
<path d="M49.7488 150.818H48.04V153.965H49.7488V150.818Z" fill="#2B4369"/>
<path d="M53.5692 150.818H51.8604V153.965H53.5692V150.818Z" fill="#2B4369"/>
<path d="M57.3904 150.818H55.6816V153.965H57.3904V150.818Z" fill="#2B4369"/>
<path d="M61.2147 150.818H59.5059V153.965H61.2147V150.818Z" fill="#2B4369"/>
<path d="M65.034 150.818H63.3252V153.965H65.034V150.818Z" fill="#2B4369"/>
<path d="M45.9285 156.076H44.2197V159.223H45.9285V156.076Z" fill="#2B4369"/>
<path d="M49.7488 156.076H48.04V159.223H49.7488V156.076Z" fill="#2B4369"/>
<path d="M61.2147 156.076H59.5059V159.223H61.2147V156.076Z" fill="#2B4369"/>
<path d="M65.034 156.076H63.3252V159.223H65.034V156.076Z" fill="#2B4369"/>
<path d="M108.647 132.933L100.085 141.73V166.244H108.647H117.202V141.73L108.647 132.933Z" fill="white"/>
<path d="M100.088 141.73H66.4736V166.244H100.088V141.73Z" fill="#B4D399"/>
<path d="M75.032 132.933H108.647L100.085 141.73H66.4736L75.032 132.933Z" fill="#3B685B"/>
<path d="M70.7936 144.248H68.3545V148.733H70.7936V144.248Z" fill="#2B4369"/>
<path d="M76.2438 144.248H73.8047V148.733H76.2438V144.248Z" fill="#2B4369"/>
<path d="M81.691 144.248H79.252V148.733H81.691V144.248Z" fill="#2B4369"/>
<path d="M87.1412 144.248H84.7021V148.733H87.1412V144.248Z" fill="#2B4369"/>
<path d="M81.691 151.743H79.252V156.228H81.691V151.743Z" fill="#2B4369"/>
<path d="M87.1412 151.743H84.7021V156.228H87.1412V151.743Z" fill="#2B4369"/>
<path d="M92.5905 144.248H90.1514V148.733H92.5905V144.248Z" fill="#2B4369"/>
<path d="M98.0377 144.248H95.5986V148.733H98.0377V144.248Z" fill="#2B4369"/>
<path d="M70.7936 151.743H68.3545V156.228H70.7936V151.743Z" fill="#2B4369"/>
<path d="M76.2438 151.743H73.8047V156.228H76.2438V151.743Z" fill="#2B4369"/>
<path d="M92.5905 151.743H90.1514V156.228H92.5905V151.743Z" fill="#2B4369"/>
<path d="M98.0377 151.743H95.5986V156.228H98.0377V151.743Z" fill="#2B4369"/>
<path d="M57.3897 156.076H51.8604V166.244H57.3897V156.076Z" fill="#2B4369"/>
<path d="M225.198 143.856H218.618V153.639H225.198V143.856Z" fill="#ECF8FF"/>
<path d="M225.766 143.427H218.053V146.182H225.766V143.427Z" fill="#2B4369"/>
<path d="M236.34 151.576L228.145 159.996V183.471H236.34H244.535V159.996L236.34 151.576Z" fill="white"/>
<path d="M228.14 159.999H206.43V183.471H228.14V159.999Z" fill="#97CED1"/>
<path d="M214.625 151.576H236.339L228.144 159.996H206.43L214.625 151.576Z" fill="#2B4369"/>
<path d="M210.531 162.406H208.196V166.703H210.531V162.406Z" fill="#2B4369"/>
<path d="M215.747 162.406H213.412V166.703H215.747V162.406Z" fill="#2B4369"/>
<path d="M210.531 169.587H208.196V173.884H210.531V169.587Z" fill="#2B4369"/>
<path d="M215.747 169.587H213.412V173.884H215.747V169.587Z" fill="#2B4369"/>
<path d="M220.964 162.406H218.629V166.703H220.964V162.406Z" fill="#2B4369"/>
<path d="M226.18 162.406H223.846V166.703H226.18V162.406Z" fill="#2B4369"/>
<path d="M220.964 169.587H218.629V173.884H220.964V169.587Z" fill="#2B4369"/>
<path d="M226.18 169.587H223.846V173.884H226.18V169.587Z" fill="#2B4369"/>
<path d="M247.171 165.213L242.477 170.031V183.471H247.171H251.862V170.031L247.171 165.213Z" fill="white"/>
<path d="M242.477 170.034H233.264V183.471H242.477V170.034Z" fill="#97CED1"/>
<path d="M237.955 165.213H247.171L242.477 170.031H233.264L237.955 165.213Z" fill="#2B4369"/>
<path d="M39.7624 142.843H33.1826V152.626H39.7624V142.843Z" fill="#ECF8FF"/>
<path d="M40.3272 142.414H32.6143V145.168H40.3272V142.414Z" fill="#2B4369"/>
<path d="M50.8992 150.559L42.7041 158.982V182.458H50.8992H59.0942V158.982L50.8992 150.559Z" fill="white"/>
<path d="M42.7049 158.982H20.9941V182.455H42.7049V158.982Z" fill="#97CED1"/>
<path d="M29.1892 150.559H50.9L42.7049 158.982H20.9941L29.1892 150.559Z" fill="#2B4369"/>
<path d="M25.0916 161.393H22.7568V165.69H25.0916V161.393Z" fill="#2B4369"/>
<path d="M30.3074 161.393H27.9727V165.69H30.3074V161.393Z" fill="#2B4369"/>
<path d="M25.0916 168.574H22.7568V172.87H25.0916V168.574Z" fill="#2B4369"/>
<path d="M30.3074 168.574H27.9727V172.87H30.3074V168.574Z" fill="#2B4369"/>
<path d="M35.5281 161.393H33.1934V165.69H35.5281V161.393Z" fill="#2B4369"/>
<path d="M40.7439 161.393H38.4092V165.69H40.7439V161.393Z" fill="#2B4369"/>
<path d="M35.5281 168.574H33.1934V172.87H35.5281V168.574Z" fill="#2B4369"/>
<path d="M40.7439 168.574H38.4092V172.87H40.7439V168.574Z" fill="#2B4369"/>
<path d="M61.7321 164.196L57.041 169.018V182.458H61.7321H66.4232V169.018L61.7321 164.196Z" fill="#ECF8FF"/>
<path d="M57.0413 169.018H47.8281V182.454H57.0413V169.018Z" fill="#97CED1"/>
<path d="M52.5192 164.196H61.7324L57.0413 169.018H47.8281L52.5192 164.196Z" fill="#2B4369"/>
<path d="M145.56 148.182L137.365 156.601V180.077H145.56H153.755V156.601L145.56 148.182Z" fill="white"/>
<path d="M137.365 156.601H105.179V180.073H137.365V156.601Z" fill="#ECF8FF"/>
<path d="M113.374 148.182H145.56L137.365 156.601H105.179L113.374 148.182Z" fill="#2B4369"/>
<path d="M109.319 159.012H106.984V163.309H109.319V159.012Z" fill="#7FAFAF"/>
<path d="M114.536 159.012H112.201V163.309H114.536V159.012Z" fill="#7FAFAF"/>
<path d="M119.752 159.012H117.417V163.309H119.752V159.012Z" fill="#7FAFAF"/>
<path d="M124.972 159.012H122.638V163.309H124.972V159.012Z" fill="#7FAFAF"/>
<path d="M130.188 159.012H127.854V163.309H130.188V159.012Z" fill="#7FAFAF"/>
<path d="M135.405 159.012H133.07V163.309H135.405V159.012Z" fill="#7FAFAF"/>
<path d="M109.319 166.193H106.984V170.489H109.319V166.193Z" fill="#7FAFAF"/>
<path d="M114.536 166.193H112.201V170.489H114.536V166.193Z" fill="#7FAFAF"/>
<path d="M130.188 166.193H127.854V170.489H130.188V166.193Z" fill="#7FAFAF"/>
<path d="M135.405 166.193H133.07V170.489H135.405V166.193Z" fill="#7FAFAF"/>
<path d="M111.198 161.815L115.889 166.64V180.077H111.198H106.503V166.64L111.198 161.815Z" fill="#97CED1"/>
<path d="M125.102 166.636H115.889V180.073H125.102V166.636Z" fill="white"/>
<path d="M120.41 161.815H111.197L115.888 166.64H125.101L120.41 161.815Z" fill="#2B4369"/>
</g>
<defs>
<clipPath id="clip0_5898_141028">
<path d="M-60 1.38461C-60 -3.79836 -55.7984 -8 -50.6154 -8H394.615C399.798 -8 404 -3.79836 404 1.38461V1.38461C404 97.2697 326.27 175 230.385 175H113.615C17.7303 175 -60 97.2697 -60 1.38461V1.38461Z" fill="white"/>
</clipPath>
</defs>
</svg>
