<svg width="540" height="223" viewBox="0 0 540 223" fill="none" xmlns="http://www.w3.org/2000/svg">
<g clip-path="url(#clip0_5898_140664)">
<path d="M-144.582 118.527C-43.2814 206.977 241.864 329.61 572.042 112.541C984.765 -158.794 -455.783 -291.137 -144.582 118.527Z" fill="#DEE7E5"/>
<path d="M548.971 161.932V176.143C548.971 197.497 531.091 213.599 506.048 221.842C497.659 224.578 488.861 226.416 479.879 227.31C469.146 228.404 458.339 229.118 446.787 229.508C410.842 230.724 367.713 228.797 297.425 225.24C251.806 222.929 165.863 225.985 110.015 227.018C102.02 227.166 94.6408 227.274 88.087 227.317C73.8978 227.411 60.7151 224.271 49.7421 218.835C31.1799 209.635 18.9707 193.895 18.9707 176.143L-41.0293 144.873C18.6349 132.088 132.375 136.873 239.971 136.873C285.971 154.373 448.012 120.515 506.048 128.873C516.186 130.334 575.044 130.224 583.971 131.873C590.802 133.135 542.894 160.567 548.971 161.932Z" fill="#CFD3A3"/>
<path d="M117.86 70.0872H75.3701V223.041H117.86V70.0872Z" fill="#2A426A"/>
<path d="M100.98 70.0872H75.3701V223.041H100.98V70.0872Z" fill="#4F8B7D"/>
<path d="M117.86 76.2446H75.3701V78.0581H117.86V76.2446Z" fill="#FFFDFF"/>
<path d="M117.86 86.9331H75.3701V88.7465H117.86V86.9331Z" fill="#FFFDFF"/>
<path d="M117.86 97.6218H75.3701V99.4352H117.86V97.6218Z" fill="#FFFDFF"/>
<path d="M117.86 108.31H75.3701V110.124H117.86V108.31Z" fill="#FFFDFF"/>
<path d="M117.86 118.999H75.3701V120.812H117.86V118.999Z" fill="#FFFDFF"/>
<path d="M117.86 129.682H75.3701V131.496H117.86V129.682Z" fill="#FFFDFF"/>
<path d="M117.86 140.371H75.3701V142.185H117.86V140.371Z" fill="#FFFDFF"/>
<path d="M117.86 151.06H75.3701V152.873H117.86V151.06Z" fill="#FFFDFF"/>
<path d="M117.86 161.748H75.3701V163.562H117.86V161.748Z" fill="#FFFDFF"/>
<path d="M117.86 172.437H75.3701V174.25H117.86V172.437Z" fill="#FFFDFF"/>
<path d="M117.86 183.125H75.3701V184.939H117.86V183.125Z" fill="#FFFDFF"/>
<path d="M117.86 193.809H75.3701V195.622H117.86V193.809Z" fill="#FFFDFF"/>
<path d="M117.86 204.497H75.3701V206.311H117.86V204.497Z" fill="#FFFDFF"/>
<path d="M117.86 76.2446H100.979V78.0581H117.86V76.2446Z" fill="#B4D399"/>
<path d="M117.86 86.9332H100.979V88.7466H117.86V86.9332Z" fill="#B4D399"/>
<path d="M117.86 97.6218H100.979V99.4352H117.86V97.6218Z" fill="#B4D399"/>
<path d="M117.86 108.31H100.979V110.124H117.86V108.31Z" fill="#B4D399"/>
<path d="M117.86 118.999H100.979V120.812H117.86V118.999Z" fill="#B4D399"/>
<path d="M117.86 129.682H100.979V131.496H117.86V129.682Z" fill="#B4D399"/>
<path d="M117.86 140.371H100.979V142.185H117.86V140.371Z" fill="#B4D399"/>
<path d="M117.86 151.06H100.979V152.873H117.86V151.06Z" fill="#B4D399"/>
<path d="M117.86 161.748H100.979V163.562H117.86V161.748Z" fill="#B4D399"/>
<path d="M117.86 172.437H100.979V174.25H117.86V172.437Z" fill="#B4D399"/>
<path d="M117.86 183.125H100.979V184.939H117.86V183.125Z" fill="#B4D399"/>
<path d="M117.86 193.809H100.979V195.622H117.86V193.809Z" fill="#B4D399"/>
<path d="M117.86 204.497H100.979V206.311H117.86V204.497Z" fill="#B4D399"/>
<path d="M364.616 105.679H346.382V223.041H364.616V105.679Z" fill="#2A426A"/>
<path d="M346.631 105.679H319.346V223.041H346.631V105.679Z" fill="#B4D399"/>
<path d="M364.615 110.402H319.346V111.791H364.615V110.402Z" fill="#FFFDFF"/>
<path d="M364.615 118.605H319.346V119.994H364.615V118.605Z" fill="#FFFDFF"/>
<path d="M364.615 126.803H319.346V128.192H364.615V126.803Z" fill="#FFFDFF"/>
<path d="M364.615 135.007H319.346V136.396H364.615V135.007Z" fill="#FFFDFF"/>
<path d="M364.615 143.205H319.346V144.594H364.615V143.205Z" fill="#FFFDFF"/>
<path d="M364.615 151.408H319.346V152.797H364.615V151.408Z" fill="#FFFDFF"/>
<path d="M364.615 159.606H319.346V160.996H364.615V159.606Z" fill="#FFFDFF"/>
<path d="M364.615 167.81H319.346V169.199H364.615V167.81Z" fill="#FFFDFF"/>
<path d="M364.615 176.008H319.346V177.397H364.615V176.008Z" fill="#FFFDFF"/>
<path d="M364.615 184.211H319.346V185.601H364.615V184.211Z" fill="#FFFDFF"/>
<path d="M364.615 192.41H319.346V193.799H364.615V192.41Z" fill="#FFFDFF"/>
<path d="M364.615 200.613H319.346V202.002H364.615V200.613Z" fill="#FFFDFF"/>
<path d="M364.615 208.811H319.346V210.2H364.615V208.811Z" fill="#FFFDFF"/>
<path d="M364.616 110.402H346.631V111.791H364.616V110.402Z" fill="#B4D399"/>
<path d="M364.616 118.605H346.631V119.994H364.616V118.605Z" fill="#B4D399"/>
<path d="M364.616 126.803H346.631V128.192H364.616V126.803Z" fill="#B4D399"/>
<path d="M364.616 135.007H346.631V136.396H364.616V135.007Z" fill="#B4D399"/>
<path d="M364.616 143.205H346.631V144.594H364.616V143.205Z" fill="#B4D399"/>
<path d="M364.616 151.408H346.631V152.797H364.616V151.408Z" fill="#B4D399"/>
<path d="M364.616 159.606H346.631V160.996H364.616V159.606Z" fill="#B4D399"/>
<path d="M364.616 167.81H346.631V169.199H364.616V167.81Z" fill="#B4D399"/>
<path d="M364.616 176.008H346.631V177.397H364.616V176.008Z" fill="#B4D399"/>
<path d="M364.616 184.211H346.631V185.601H364.616V184.211Z" fill="#B4D399"/>
<path d="M364.616 192.41H346.631V193.799H364.616V192.41Z" fill="#B4D399"/>
<path d="M364.616 200.613H346.631V202.002H364.616V200.613Z" fill="#B4D399"/>
<path d="M364.616 208.811H346.631V210.2H364.616V208.811Z" fill="#B4D399"/>
<path d="M329.901 116.554H313.538V223.041H329.901V116.554Z" fill="#2A426A"/>
<path d="M313.587 116.554H288.827V223.041H313.587V116.554Z" fill="#B4D399"/>
<path d="M310.969 120.201H290.913V122.505H310.969V120.201Z" fill="#FFFDFF"/>
<path d="M328.348 120.201H315.648V122.505H328.348V120.201Z" fill="#B4D399"/>
<path d="M310.969 125.273H290.913V127.576H310.969V125.273Z" fill="#FFFDFF"/>
<path d="M328.348 125.273H315.648V127.576H328.348V125.273Z" fill="#B4D399"/>
<path d="M310.969 130.344H290.913V132.648H310.969V130.344Z" fill="#FFFDFF"/>
<path d="M328.348 130.344H315.648V132.648H328.348V130.344Z" fill="#B4D399"/>
<path d="M310.969 135.411H290.913V137.714H310.969V135.411Z" fill="#FFFDFF"/>
<path d="M328.348 135.411H315.648V137.714H328.348V135.411Z" fill="#B4D399"/>
<path d="M310.969 140.482H290.913V142.786H310.969V140.482Z" fill="#FFFDFF"/>
<path d="M328.348 140.482H315.648V142.786H328.348V140.482Z" fill="#B4D399"/>
<path d="M310.969 145.554H290.913V147.857H310.969V145.554Z" fill="#FFFDFF"/>
<path d="M328.348 145.554H315.648V147.857H328.348V145.554Z" fill="#B4D399"/>
<path d="M310.969 150.62H290.913V152.924H310.969V150.62Z" fill="#FFFDFF"/>
<path d="M328.348 150.62H315.648V152.924H328.348V150.62Z" fill="#B4D399"/>
<path d="M310.969 155.692H290.913V157.995H310.969V155.692Z" fill="#FFFDFF"/>
<path d="M328.348 155.692H315.648V157.995H328.348V155.692Z" fill="#B4D399"/>
<path d="M310.969 160.763H290.913V163.067H310.969V160.763Z" fill="#FFFDFF"/>
<path d="M328.348 160.763H315.648V163.067H328.348V160.763Z" fill="#B4D399"/>
<path d="M310.969 165.83H290.913V168.133H310.969V165.83Z" fill="#FFFDFF"/>
<path d="M328.348 165.83H315.648V168.133H328.348V165.83Z" fill="#B4D399"/>
<path d="M310.969 170.901H290.913V173.205H310.969V170.901Z" fill="#FFFDFF"/>
<path d="M328.348 170.901H315.648V173.205H328.348V170.901Z" fill="#B4D399"/>
<path d="M310.969 175.973H290.913V178.276H310.969V175.973Z" fill="#FFFDFF"/>
<path d="M328.348 175.973H315.648V178.276H328.348V175.973Z" fill="#B4D399"/>
<path d="M310.969 181.044H290.913V183.348H310.969V181.044Z" fill="#FFFDFF"/>
<path d="M328.348 181.044H315.648V183.348H328.348V181.044Z" fill="#B4D399"/>
<path d="M310.969 186.111H290.913V188.414H310.969V186.111Z" fill="#FFFDFF"/>
<path d="M328.348 186.111H315.648V188.414H328.348V186.111Z" fill="#B4D399"/>
<path d="M310.969 191.182H290.913V193.486H310.969V191.182Z" fill="#FFFDFF"/>
<path d="M328.348 191.182H315.648V193.486H328.348V191.182Z" fill="#B4D399"/>
<path d="M161.737 110.533H113.41V224.263H161.737V110.533Z" fill="#2A426A"/>
<path d="M142.541 110.533H113.41V224.263H142.541V110.533Z" fill="#7FAFAF"/>
<path d="M118.783 115.135H115.652V118.964H118.783V115.135Z" fill="#FFFDFF"/>
<path d="M125.694 115.135H122.563V118.964H125.694V115.135Z" fill="#FFFDFF"/>
<path d="M132.607 115.135H129.476V118.964H132.607V115.135Z" fill="#FFFDFF"/>
<path d="M139.513 115.135H136.382V118.964H139.513V115.135Z" fill="#FFFDFF"/>
<path d="M118.783 125.626H115.652V129.455H118.783V125.626Z" fill="#FFFDFF"/>
<path d="M125.694 125.626H122.563V129.455H125.694V125.626Z" fill="#FFFDFF"/>
<path d="M132.607 125.626H129.476V129.455H132.607V125.626Z" fill="#FFFDFF"/>
<path d="M139.513 125.626H136.382V129.455H139.513V125.626Z" fill="#FFFDFF"/>
<path d="M118.783 136.118H115.652V139.947H118.783V136.118Z" fill="#FFFDFF"/>
<path d="M125.694 136.118H122.563V139.947H125.694V136.118Z" fill="#FFFDFF"/>
<path d="M132.607 136.118H129.476V139.947H132.607V136.118Z" fill="#FFFDFF"/>
<path d="M139.513 136.118H136.382V139.947H139.513V136.118Z" fill="#FFFDFF"/>
<path d="M118.783 146.609H115.652V150.438H118.783V146.609Z" fill="#FFFDFF"/>
<path d="M125.694 146.609H122.563V150.438H125.694V146.609Z" fill="#FFFDFF"/>
<path d="M132.607 146.609H129.476V150.438H132.607V146.609Z" fill="#FFFDFF"/>
<path d="M139.513 146.609H136.382V150.438H139.513V146.609Z" fill="#FFFDFF"/>
<path d="M118.783 157.106H115.652V160.935H118.783V157.106Z" fill="#FFFDFF"/>
<path d="M125.694 157.106H122.563V160.935H125.694V157.106Z" fill="#FFFDFF"/>
<path d="M132.607 157.106H129.476V160.935H132.607V157.106Z" fill="#FFFDFF"/>
<path d="M139.513 157.106H136.382V160.935H139.513V157.106Z" fill="#FFFDFF"/>
<path d="M118.783 167.598H115.652V171.426H118.783V167.598Z" fill="#FFFDFF"/>
<path d="M125.694 167.598H122.563V171.427H125.694V167.598Z" fill="#FFFDFF"/>
<path d="M132.607 167.598H129.476V171.426H132.607V167.598Z" fill="#FFFDFF"/>
<path d="M139.513 167.598H136.382V171.427H139.513V167.598Z" fill="#FFFDFF"/>
<path d="M118.783 178.089H115.652V181.918H118.783V178.089Z" fill="#FFFDFF"/>
<path d="M125.694 178.089H122.563V181.918H125.694V178.089Z" fill="#FFFDFF"/>
<path d="M132.607 178.089H129.476V181.918H132.607V178.089Z" fill="#FFFDFF"/>
<path d="M139.513 178.089H136.382V181.918H139.513V178.089Z" fill="#FFFDFF"/>
<path d="M118.783 188.581H115.652V192.41H118.783V188.581Z" fill="#FFFDFF"/>
<path d="M125.694 188.581H122.563V192.41H125.694V188.581Z" fill="#FFFDFF"/>
<path d="M132.607 188.581H129.476V192.41H132.607V188.581Z" fill="#FFFDFF"/>
<path d="M139.513 188.581H136.382V192.41H139.513V188.581Z" fill="#FFFDFF"/>
<path d="M195.509 92.2623H158.455V141.396H195.509V92.2623Z" fill="#2A426A"/>
<path d="M197.107 95.97H156.858V149.337H197.107V95.97Z" fill="#4F8B7D"/>
<path d="M181.12 95.97H156.858V149.337H181.12V95.97Z" fill="#B4D399"/>
<path d="M161.337 100.011H158.729V102.825H161.337V100.011Z" fill="#FFFDFF"/>
<path d="M167.091 100.011H164.482V102.825H167.091V100.011Z" fill="#FFFDFF"/>
<path d="M172.845 100.011H170.236V102.825H172.845V100.011Z" fill="#FFFDFF"/>
<path d="M178.599 100.011H175.99V102.825H178.599V100.011Z" fill="#FFFDFF"/>
<path d="M161.337 107.719H158.729V110.533H161.337V107.719Z" fill="#FFFDFF"/>
<path d="M167.091 107.719H164.482V110.533H167.091V107.719Z" fill="#FFFDFF"/>
<path d="M172.845 107.719H170.236V110.533H172.845V107.719Z" fill="#FFFDFF"/>
<path d="M178.599 107.719H175.99V110.533H178.599V107.719Z" fill="#FFFDFF"/>
<path d="M161.337 115.423H158.729V118.236H161.337V115.423Z" fill="#FFFDFF"/>
<path d="M167.091 115.423H164.482V118.236H167.091V115.423Z" fill="#FFFDFF"/>
<path d="M172.845 115.423H170.236V118.236H172.845V115.423Z" fill="#FFFDFF"/>
<path d="M178.599 115.423H175.99V118.236H178.599V115.423Z" fill="#FFFDFF"/>
<path d="M161.337 123.131H158.729V125.944H161.337V123.131Z" fill="#FFFDFF"/>
<path d="M167.091 123.131H164.482V125.944H167.091V123.131Z" fill="#FFFDFF"/>
<path d="M172.845 123.131H170.236V125.944H172.845V123.131Z" fill="#FFFDFF"/>
<path d="M178.599 123.131H175.99V125.944H178.599V123.131Z" fill="#FFFDFF"/>
<path d="M199.07 131.329H154.89V223.041H199.07V131.329Z" fill="#4F8B7D"/>
<path d="M181.52 131.329H154.89V223.041H181.52V131.329Z" fill="#B4D399"/>
<path d="M159.804 135.042H156.941V138.133H159.804V135.042Z" fill="#FFFDFF"/>
<path d="M166.124 135.042H163.262V138.133H166.124V135.042Z" fill="#FFFDFF"/>
<path d="M172.439 135.042H169.577V138.133H172.439V135.042Z" fill="#FFFDFF"/>
<path d="M178.755 135.042H175.893V138.133H178.755V135.042Z" fill="#FFFDFF"/>
<path d="M159.804 143.503H156.941V146.594H159.804V143.503Z" fill="#FFFDFF"/>
<path d="M166.124 143.503H163.262V146.594H166.124V143.503Z" fill="#FFFDFF"/>
<path d="M172.439 143.503H169.577V146.594H172.439V143.503Z" fill="#FFFDFF"/>
<path d="M178.755 143.503H175.893V146.594H178.755V143.503Z" fill="#FFFDFF"/>
<path d="M159.804 151.964H156.941V155.055H159.804V151.964Z" fill="#FFFDFF"/>
<path d="M166.124 151.964H163.262V155.055H166.124V151.964Z" fill="#FFFDFF"/>
<path d="M172.439 151.964H169.577V155.055H172.439V151.964Z" fill="#FFFDFF"/>
<path d="M178.755 151.964H175.893V155.055H178.755V151.964Z" fill="#FFFDFF"/>
<path d="M159.804 160.425H156.941V163.516H159.804V160.425Z" fill="#FFFDFF"/>
<path d="M166.124 160.425H163.262V163.516H166.124V160.425Z" fill="#FFFDFF"/>
<path d="M172.439 160.425H169.577V163.516H172.439V160.425Z" fill="#FFFDFF"/>
<path d="M178.755 160.425H175.893V163.516H178.755V160.425Z" fill="#FFFDFF"/>
<path d="M159.804 168.886H156.941V171.977H159.804V168.886Z" fill="#FFFDFF"/>
<path d="M166.124 168.886H163.262V171.977H166.124V168.886Z" fill="#FFFDFF"/>
<path d="M172.439 168.886H169.577V171.977H172.439V168.886Z" fill="#FFFDFF"/>
<path d="M178.755 168.886H175.893V171.977H178.755V168.886Z" fill="#FFFDFF"/>
<path d="M159.804 177.347H156.941V180.438H159.804V177.347Z" fill="#FFFDFF"/>
<path d="M166.124 177.347H163.262V180.438H166.124V177.347Z" fill="#FFFDFF"/>
<path d="M172.439 177.347H169.577V180.438H172.439V177.347Z" fill="#FFFDFF"/>
<path d="M178.755 177.347H175.893V180.438H178.755V177.347Z" fill="#FFFDFF"/>
<path d="M159.804 185.808H156.941V188.899H159.804V185.808Z" fill="#FFFDFF"/>
<path d="M166.124 185.808H163.262V188.899H166.124V185.808Z" fill="#FFFDFF"/>
<path d="M172.439 185.808H169.577V188.899H172.439V185.808Z" fill="#FFFDFF"/>
<path d="M178.755 185.808H175.893V188.899H178.755V185.808Z" fill="#FFFDFF"/>
<path d="M159.804 194.269H156.941V197.36H159.804V194.269Z" fill="#FFFDFF"/>
<path d="M166.124 194.269H163.262V197.36H166.124V194.269Z" fill="#FFFDFF"/>
<path d="M172.439 194.269H169.577V197.36H172.439V194.269Z" fill="#FFFDFF"/>
<path d="M178.755 194.269H175.893V197.36H178.755V194.269Z" fill="#FFFDFF"/>
<path d="M244.437 144.346H193.013V225.066H244.437V144.346Z" fill="#2A426A"/>
<path d="M224.01 144.346H193.013V225.066H224.01V144.346Z" fill="#8CA575"/>
<path d="M220.742 147.109H195.631V148.857H220.742V147.109Z" fill="#FFFDFF"/>
<path d="M242.503 147.109H226.599V148.857H242.503V147.109Z" fill="#B4D399"/>
<path d="M220.742 150.954H195.631V152.701H220.742V150.954Z" fill="#FFFDFF"/>
<path d="M242.503 150.954H226.599V152.701H242.503V150.954Z" fill="#B4D399"/>
<path d="M220.742 154.798H195.631V156.545H220.742V154.798Z" fill="#FFFDFF"/>
<path d="M242.503 154.798H226.599V156.545H242.503V154.798Z" fill="#B4D399"/>
<path d="M220.742 158.642H195.631V160.389H220.742V158.642Z" fill="#FFFDFF"/>
<path d="M242.503 158.642H226.599V160.389H242.503V158.642Z" fill="#B4D399"/>
<path d="M220.742 162.481H195.631V164.228H220.742V162.481Z" fill="#FFFDFF"/>
<path d="M242.503 162.481H226.599V164.228H242.503V162.481Z" fill="#B4D399"/>
<path d="M220.742 166.325H195.631V168.072H220.742V166.325Z" fill="#FFFDFF"/>
<path d="M242.503 166.325H226.599V168.072H242.503V166.325Z" fill="#B4D399"/>
<path d="M220.742 170.169H195.631V171.916H220.742V170.169Z" fill="#FFFDFF"/>
<path d="M242.503 170.169H226.599V171.916H242.503V170.169Z" fill="#B4D399"/>
<path d="M220.742 174.013H195.631V175.76H220.742V174.013Z" fill="#FFFDFF"/>
<path d="M242.503 174.013H226.599V175.76H242.503V174.013Z" fill="#B4D399"/>
<path d="M220.742 177.857H195.631V179.604H220.742V177.857Z" fill="#FFFDFF"/>
<path d="M242.503 177.857H226.599V179.604H242.503V177.857Z" fill="#B4D399"/>
<path d="M220.742 181.701H195.631V183.449H220.742V181.701Z" fill="#FFFDFF"/>
<path d="M242.503 181.701H226.599V183.449H242.503V181.701Z" fill="#B4D399"/>
<path d="M220.742 185.54H195.631V187.288H220.742V185.54Z" fill="#FFFDFF"/>
<path d="M242.503 185.54H226.599V187.288H242.503V185.54Z" fill="#B4D399"/>
<path d="M220.742 189.384H195.631V191.132H220.742V189.384Z" fill="#FFFDFF"/>
<path d="M242.503 189.384H226.599V191.132H242.503V189.384Z" fill="#B4D399"/>
<path d="M220.742 193.228H195.631V194.976H220.742V193.228Z" fill="#FFFDFF"/>
<path d="M242.503 193.228H226.599V194.976H242.503V193.228Z" fill="#B4D399"/>
<path d="M220.742 197.072H195.631V198.82H220.742V197.072Z" fill="#FFFDFF"/>
<path d="M242.503 197.072H226.599V198.82H242.503V197.072Z" fill="#B4D399"/>
<path d="M220.742 200.916H195.631V202.664H220.742V200.916Z" fill="#FFFDFF"/>
<path d="M242.503 200.916H226.599V202.664H242.503V200.916Z" fill="#B4D399"/>
<path d="M403.984 223.041H359.55V57.873H386.332L403.984 77.9621V223.041Z" fill="#2A426A"/>
<path d="M386.332 57.873H359.55V223.041H386.332V57.873Z" fill="#7FAFAF"/>
<path d="M383.509 65.4955H361.812V69.1829H383.509V65.4955Z" fill="#FFFDFF"/>
<path d="M383.509 73.6079H361.812V77.2954H383.509V73.6079Z" fill="#FFFDFF"/>
<path d="M383.509 81.7202H361.812V85.4077H383.509V81.7202Z" fill="#FFFDFF"/>
<path d="M383.509 89.8378H361.812V93.5252H383.509V89.8378Z" fill="#FFFDFF"/>
<path d="M383.509 97.9501H361.812V101.638H383.509V97.9501Z" fill="#FFFDFF"/>
<path d="M383.509 106.062H361.812V109.75H383.509V106.062Z" fill="#FFFDFF"/>
<path d="M383.509 114.175H361.812V117.862H383.509V114.175Z" fill="#FFFDFF"/>
<path d="M383.509 122.292H361.812V125.98H383.509V122.292Z" fill="#FFFDFF"/>
<path d="M383.509 130.405H361.812V134.092H383.509V130.405Z" fill="#FFFDFF"/>
<path d="M383.509 138.517H361.812V142.205H383.509V138.517Z" fill="#FFFDFF"/>
<path d="M383.509 146.63H361.812V150.317H383.509V146.63Z" fill="#FFFDFF"/>
<path d="M383.509 154.747H361.812V158.435H383.509V154.747Z" fill="#FFFDFF"/>
<path d="M383.509 162.859H361.812V166.547H383.509V162.859Z" fill="#FFFDFF"/>
<path d="M383.509 170.972H361.812V174.659H383.509V170.972Z" fill="#FFFDFF"/>
<path d="M383.509 179.089H361.812V182.777H383.509V179.089Z" fill="#FFFDFF"/>
<path d="M453.65 223.041H430.864V69.1829L453.65 87.898V223.041Z" fill="#2A426A"/>
<path d="M430.864 69.1829H402.578V223.041H430.864V69.1829Z" fill="#B4D399"/>
<path d="M406.964 76.2852H404.688V185.02H406.964V76.2852Z" fill="#FFFDFF"/>
<path d="M412.444 76.2852H410.168V185.02H412.444V76.2852Z" fill="#FFFDFF"/>
<path d="M417.92 76.2852H415.644V185.02H417.92V76.2852Z" fill="#FFFDFF"/>
<path d="M423.395 76.2852H421.119V185.02H423.395V76.2852Z" fill="#FFFDFF"/>
<path d="M428.871 76.285H426.595V185.02H428.871V76.285Z" fill="#FFFDFF"/>
<path d="M436.12 185.02V80.5989L433.839 78.7249V185.02H436.12Z" fill="#97CED1"/>
<path d="M440.951 185.019V84.5641L438.675 82.6951V185.019H440.951Z" fill="#97CED1"/>
<path d="M445.776 185.019V88.5344L443.5 86.6604V185.019H445.776Z" fill="#97CED1"/>
<path d="M450.607 185.02V92.4998L448.331 90.6257V185.02H450.607Z" fill="#97CED1"/>
<path d="M421.721 170.911L413.573 179.337V215.368H421.721H429.873V179.337L421.721 170.911Z" fill="white"/>
<path d="M413.573 179.337H381.564V215.368H413.573V179.337Z" fill="#97CED1"/>
<path d="M389.712 170.911H421.72L413.573 179.337H381.564L389.712 170.911Z" fill="#3B685B"/>
<path d="M385.678 181.751H383.357V186.05H385.678V181.751Z" fill="#2B4369"/>
<path d="M390.865 181.751H388.545V186.05H390.865V181.751Z" fill="#2B4369"/>
<path d="M396.053 181.751H393.732V186.05H396.053V181.751Z" fill="#2B4369"/>
<path d="M401.244 181.751H398.924V186.05H401.244V181.751Z" fill="#2B4369"/>
<path d="M396.053 188.929H393.732V193.228H396.053V188.929Z" fill="#2B4369"/>
<path d="M401.244 188.929H398.924V193.228H401.244V188.929Z" fill="#2B4369"/>
<path d="M406.431 181.751H404.111V186.05H406.431V181.751Z" fill="#2B4369"/>
<path d="M411.619 181.751H409.299V186.05H411.619V181.751Z" fill="#2B4369"/>
<path d="M385.678 188.929H383.357V193.228H385.678V188.929Z" fill="#2B4369"/>
<path d="M390.865 188.929H388.545V193.228H390.865V188.929Z" fill="#2B4369"/>
<path d="M406.431 188.929H404.111V193.228H406.431V188.929Z" fill="#2B4369"/>
<path d="M411.619 188.929H409.299V193.228H411.619V188.929Z" fill="#2B4369"/>
<path d="M417.69 181.751H415.37V186.05H417.69V181.751Z" fill="#B4D399"/>
<path d="M417.69 188.929H415.37V193.228H417.69V188.929Z" fill="#B4D399"/>
<path d="M422.883 181.751H420.562V186.05H422.883V181.751Z" fill="#B4D399"/>
<path d="M428.07 181.751H425.75V186.05H428.07V181.751Z" fill="#B4D399"/>
<path d="M422.883 188.929H420.562V193.228H422.883V188.929Z" fill="#B4D399"/>
<path d="M428.07 188.929H425.75V193.228H428.07V188.929Z" fill="#B4D399"/>
<path d="M387.548 196.102L392.213 200.926V215.368H387.548H382.884V200.926L387.548 196.102Z" fill="#A3C284"/>
<path d="M401.376 200.926H392.213V215.368H401.376V200.926Z" fill="white"/>
<path d="M396.706 196.102H387.548L392.213 200.926H401.376L396.706 196.102Z" fill="#2B4369"/>
<path d="M280.529 170.154L266.989 184.156V223.177H280.529H294.069V184.156L280.529 170.154Z" fill="#97CED1"/>
<path d="M266.989 184.156H248.359V223.177H266.989V184.156Z" fill="#B4D399"/>
<path d="M261.899 170.154H280.529L266.989 184.156H248.359L261.899 170.154Z" fill="#3B685B"/>
<path d="M255.129 188.161H251.271V195.304H255.129V188.161Z" fill="white"/>
<path d="M263.75 188.161H259.892V195.304H263.75V188.161Z" fill="white"/>
<path d="M255.129 200.098H251.271V207.24H255.129V200.098Z" fill="white"/>
<path d="M263.75 200.098H259.892V207.24H263.75V200.098Z" fill="white"/>
<path d="M316.01 191.263L307.862 199.689V223.177H316.01H324.157V199.689L316.01 191.263Z" fill="white"/>
<path d="M307.863 199.688H275.854V223.177H307.863V199.688Z" fill="#B4D399"/>
<path d="M284.002 191.263H316.01L307.863 199.689H275.854L284.002 191.263Z" fill="#3B685B"/>
<path d="M279.967 202.103H277.646V206.402H279.967V202.103Z" fill="#7FAFAF"/>
<path d="M285.154 202.103H282.834V206.402H285.154V202.103Z" fill="#7FAFAF"/>
<path d="M290.342 202.103H288.021V206.402H290.342V202.103Z" fill="#7FAFAF"/>
<path d="M295.529 202.103H293.209V206.402H295.529V202.103Z" fill="#7FAFAF"/>
<path d="M300.722 202.103H298.401V206.402H300.722V202.103Z" fill="#7FAFAF"/>
<path d="M305.909 202.103H303.589V206.402H305.909V202.103Z" fill="#7FAFAF"/>
<path d="M279.967 209.286H277.646V213.585H279.967V209.286Z" fill="#7FAFAF"/>
<path d="M285.154 209.286H282.834V213.585H285.154V209.286Z" fill="#7FAFAF"/>
<path d="M300.722 209.286H298.401V213.585H300.722V209.286Z" fill="#7FAFAF"/>
<path d="M305.909 209.286H303.589V213.585H305.909V209.286Z" fill="#7FAFAF"/>
<path d="M281.833 204.906L286.502 209.73V223.177H281.833H277.168V209.73L281.833 204.906Z" fill="#B4D399"/>
<path d="M295.666 209.73H286.503V223.177H295.666V209.73Z" fill="white"/>
<path d="M290.996 204.906H281.833L286.503 209.73H295.661L290.996 204.906Z" fill="#3B685B"/>
<path d="M134.868 179.125L126.721 187.55V211.039H134.868H143.015V187.55L134.868 179.125Z" fill="#ECF8FF"/>
<path d="M126.716 187.55H94.708V211.039H126.716V187.55Z" fill="#B4D399"/>
<path d="M102.86 179.125H134.868L126.721 187.55H94.708L102.86 179.125Z" fill="#3B685B"/>
<path d="M98.825 189.965H96.5049V194.264H98.825V189.965Z" fill="#2B4369"/>
<path d="M104.013 189.965H101.692V194.264H104.013V189.965Z" fill="#2B4369"/>
<path d="M109.2 189.965H106.88V194.264H109.2V189.965Z" fill="#2B4369"/>
<path d="M114.388 189.965H112.067V194.264H114.388V189.965Z" fill="#2B4369"/>
<path d="M119.58 189.965H117.26V194.264H119.58V189.965Z" fill="#2B4369"/>
<path d="M124.766 189.965H122.446V194.264H124.766V189.965Z" fill="#2B4369"/>
<path d="M98.825 197.148H96.5049V201.446H98.825V197.148Z" fill="#2B4369"/>
<path d="M104.013 197.148H101.692V201.446H104.013V197.148Z" fill="#2B4369"/>
<path d="M119.58 197.148H117.26V201.446H119.58V197.148Z" fill="#2B4369"/>
<path d="M124.766 197.148H122.446V201.446H124.766V197.148Z" fill="#2B4369"/>
<path d="M183.982 165.532L172.356 177.549V211.039H183.982H195.597V177.549L183.982 165.532Z" fill="white"/>
<path d="M172.362 177.549H126.721V211.039H172.362V177.549Z" fill="#B4D399"/>
<path d="M138.341 165.532H183.982L172.357 177.549H126.721L138.341 165.532Z" fill="#3B685B"/>
<path d="M132.587 180.989H129.275V187.116H132.587V180.989Z" fill="#2B4369"/>
<path d="M139.986 180.989H136.675V187.116H139.986V180.989Z" fill="#2B4369"/>
<path d="M147.382 180.989H144.07V187.116H147.382V180.989Z" fill="#2B4369"/>
<path d="M154.782 180.989H151.471V187.116H154.782V180.989Z" fill="#2B4369"/>
<path d="M147.382 191.228H144.07V197.355H147.382V191.228Z" fill="#2B4369"/>
<path d="M154.782 191.228H151.471V197.355H154.782V191.228Z" fill="#2B4369"/>
<path d="M162.182 180.989H158.87V187.116H162.182V180.989Z" fill="#2B4369"/>
<path d="M169.577 180.989H166.266V187.116H169.577V180.989Z" fill="#2B4369"/>
<path d="M132.587 191.228H129.275V197.355H132.587V191.228Z" fill="#2B4369"/>
<path d="M139.986 191.228H136.675V197.355H139.986V191.228Z" fill="#2B4369"/>
<path d="M162.182 191.228H158.87V197.355H162.182V191.228Z" fill="#2B4369"/>
<path d="M169.577 191.228H166.266V197.355H169.577V191.228Z" fill="#2B4369"/>
<path d="M114.387 197.148H106.88V211.039H114.387V197.148Z" fill="#2B4369"/>
<path d="M342.23 180.453H333.296V193.819H342.23V180.453Z" fill="#ECF8FF"/>
<path d="M343.002 179.867H332.529V183.63H343.002V179.867Z" fill="#2B4369"/>
<path d="M357.357 191L346.23 202.502V234.573H357.357H368.484V202.502L357.357 191Z" fill="white"/>
<path d="M346.225 202.507H316.747V234.573H346.225V202.507Z" fill="#97CED1"/>
<path d="M327.874 191H357.357L346.23 202.502H316.747L327.874 191Z" fill="#2B4369"/>
<path d="M322.316 205.796H319.146V211.665H322.316V205.796Z" fill="#2B4369"/>
<path d="M329.399 205.796H326.229V211.665H329.399V205.796Z" fill="#2B4369"/>
<path d="M322.316 215.605H319.146V221.475H322.316V215.605Z" fill="#2B4369"/>
<path d="M329.399 215.605H326.229V221.475H329.399V215.605Z" fill="#2B4369"/>
<path d="M336.481 205.796H333.311V211.665H336.481V205.796Z" fill="#2B4369"/>
<path d="M343.564 205.796H340.394V211.665H343.564V205.796Z" fill="#2B4369"/>
<path d="M336.481 215.605H333.311V221.475H336.481V215.605Z" fill="#2B4369"/>
<path d="M343.564 215.605H340.394V221.475H343.564V215.605Z" fill="#2B4369"/>
<path d="M372.065 209.63L365.69 216.211V234.573H372.065H378.434V216.211L372.065 209.63Z" fill="white"/>
<path d="M365.69 216.217H353.181V234.573H365.69V216.217Z" fill="#97CED1"/>
<path d="M359.55 209.63H372.064L365.69 216.211H353.181L359.55 209.63Z" fill="#2B4369"/>
<path d="M90.4533 179.069H81.5195V192.435H90.4533V179.069Z" fill="#ECF8FF"/>
<path d="M91.2204 178.483H80.748V182.246H91.2204V178.483Z" fill="#2B4369"/>
<path d="M105.575 189.611L94.4482 201.118V233.189H105.575H116.702V201.118L105.575 189.611Z" fill="white"/>
<path d="M94.4487 201.118H64.9707V233.184H94.4487V201.118Z" fill="#97CED1"/>
<path d="M76.0976 189.611H105.576L94.4487 201.118H64.9707L76.0976 189.611Z" fill="#2B4369"/>
<path d="M70.5343 204.412H67.3643V210.281H70.5343V204.412Z" fill="#2B4369"/>
<path d="M77.6163 204.412H74.4463V210.281H77.6163V204.412Z" fill="#2B4369"/>
<path d="M70.5343 214.221H67.3643V220.091H70.5343V214.221Z" fill="#2B4369"/>
<path d="M77.6163 214.221H74.4463V220.091H77.6163V214.221Z" fill="#2B4369"/>
<path d="M84.7042 204.412H81.5342V210.281H84.7042V204.412Z" fill="#2B4369"/>
<path d="M91.7863 204.412H88.6162V210.281H91.7863V204.412Z" fill="#2B4369"/>
<path d="M84.7042 214.221H81.5342V220.091H84.7042V214.221Z" fill="#2B4369"/>
<path d="M91.7863 214.221H88.6162V220.091H91.7863V214.221Z" fill="#2B4369"/>
<path d="M120.282 208.24L113.913 214.827V233.189H120.282H126.652V214.827L120.282 208.24Z" fill="#ECF8FF"/>
<path d="M113.914 214.827H101.404V233.184H113.914V214.827Z" fill="#97CED1"/>
<path d="M107.774 208.24H120.283L113.914 214.827H101.404L107.774 208.24Z" fill="#2B4369"/>
<path d="M234.102 186.363L222.975 197.865V229.936H234.102H245.228V197.865L234.102 186.363Z" fill="white"/>
<path d="M222.975 197.865H179.273V229.931H222.975V197.865Z" fill="#ECF8FF"/>
<path d="M190.4 186.363H234.102L222.975 197.865H179.273L190.4 186.363Z" fill="#2B4369"/>
<path d="M184.895 201.158H181.725V207.028H184.895V201.158Z" fill="#7FAFAF"/>
<path d="M191.978 201.158H188.808V207.028H191.978V201.158Z" fill="#7FAFAF"/>
<path d="M199.06 201.158H195.89V207.028H199.06V201.158Z" fill="#7FAFAF"/>
<path d="M206.148 201.158H202.978V207.028H206.148V201.158Z" fill="#7FAFAF"/>
<path d="M213.23 201.158H210.06V207.028H213.23V201.158Z" fill="#7FAFAF"/>
<path d="M220.313 201.158H217.143V207.028H220.313V201.158Z" fill="#7FAFAF"/>
<path d="M184.895 210.968H181.725V216.838H184.895V210.968Z" fill="#7FAFAF"/>
<path d="M191.978 210.968H188.808V216.838H191.978V210.968Z" fill="#7FAFAF"/>
<path d="M213.23 210.968H210.06V216.838H213.23V210.968Z" fill="#7FAFAF"/>
<path d="M220.313 210.968H217.143V216.838H220.313V210.968Z" fill="#7FAFAF"/>
<path d="M187.445 204.987L193.814 211.579V229.936H187.445H181.07V211.579L187.445 204.987Z" fill="#97CED1"/>
<path d="M206.324 211.574H193.814V229.931H206.324V211.574Z" fill="white"/>
<path d="M199.954 204.987H187.444L193.814 211.579H206.323L199.954 204.987Z" fill="#2B4369"/>
</g>
<defs>
<clipPath id="clip0_5898_140664">
<path d="M-45 -14.1795C-45 -21.2601 -39.2601 -27 -32.1795 -27H572.18C579.26 -27 585 -21.2601 585 -14.1795V-14.1795C585 116.811 478.811 223 347.821 223H192.179C61.1889 223 -45 116.811 -45 -14.1795V-14.1795Z" fill="white"/>
</clipPath>
</defs>
</svg>
