<svg width="40" height="40" viewBox="0 0 40 40" fill="none" xmlns="http://www.w3.org/2000/svg">
<path d="M34 16C33.4696 16 32.9609 16.2107 32.5858 16.5858C32.2107 16.9609 32 17.4696 32 18V24.76L29.04 21.8C27.9948 20.7631 26.5823 20.1812 25.11 20.1812C23.6377 20.1812 22.2252 20.7631 21.18 21.8L19.78 23.22L14.82 18.24C13.7748 17.2031 12.3623 16.6213 10.89 16.6213C9.41775 16.6213 8.00515 17.2031 6.96 18.24L4 21.22V10C4 9.46957 4.21071 8.96086 4.58579 8.58579C4.96086 8.21071 5.46957 8 6 8H22C22.5304 8 23.0391 7.78929 23.4142 7.41421C23.7893 7.03914 24 6.53043 24 6C24 5.46957 23.7893 4.96086 23.4142 4.58579C23.0391 4.21071 22.5304 4 22 4H6C4.4087 4 2.88258 4.63214 1.75736 5.75736C0.632141 6.88258 0 8.4087 0 10V34.44C0.00527011 35.913 0.592746 37.3241 1.63431 38.3657C2.67587 39.4073 4.08702 39.9947 5.56 40H30.44C30.982 39.9957 31.5206 39.9149 32.04 39.76C33.1949 39.4361 34.2116 38.7422 34.9341 37.7848C35.6567 36.8274 36.0452 35.6594 36.04 34.46V18C36.0401 17.734 35.987 17.4706 35.884 17.2253C35.781 16.98 35.6301 16.7577 35.4401 16.5715C35.2502 16.3852 35.0249 16.2387 34.7777 16.1406C34.5304 16.0425 34.266 15.9947 34 16ZM6 36C5.46957 36 4.96086 35.7893 4.58579 35.4142C4.21071 35.0391 4 34.5304 4 34V26.86L9.78 21.08C10.0723 20.7893 10.4678 20.6262 10.88 20.6262C11.2922 20.6262 11.6877 20.7893 11.98 21.08L26.92 36H6ZM32 34C31.9872 34.3873 31.8621 34.7625 31.64 35.08L22.6 26L24.02 24.6C24.1634 24.4537 24.3345 24.3374 24.5234 24.258C24.7123 24.1787 24.9151 24.1378 25.12 24.1378C25.3249 24.1378 25.5277 24.1787 25.7166 24.258C25.9055 24.3374 26.0766 24.4537 26.22 24.6L32 30.42V34ZM38 4H36V2C36 1.46957 35.7893 0.960859 35.4142 0.585786C35.0391 0.210714 34.5304 0 34 0C33.4696 0 32.9609 0.210714 32.5858 0.585786C32.2107 0.960859 32 1.46957 32 2V4H30C29.4696 4 28.9609 4.21071 28.5858 4.58579C28.2107 4.96086 28 5.46957 28 6C28 6.53043 28.2107 7.03914 28.5858 7.41421C28.9609 7.78929 29.4696 8 30 8H32V10C32 10.5304 32.2107 11.0391 32.5858 11.4142C32.9609 11.7893 33.4696 12 34 12C34.5304 12 35.0391 11.7893 35.4142 11.4142C35.7893 11.0391 36 10.5304 36 10V8H38C38.5304 8 39.0391 7.78929 39.4142 7.41421C39.7893 7.03914 40 6.53043 40 6C40 5.46957 39.7893 4.96086 39.4142 4.58579C39.0391 4.21071 38.5304 4 38 4Z" fill="#2C2C2C"/>
</svg>
