<svg width="34" height="26" viewBox="0 0 34 26" fill="none" xmlns="http://www.w3.org/2000/svg">
<path d="M10.7176 25.3591L0.99149 15.6391C0.622369 15.2694 0.415039 14.7683 0.415039 14.2459C0.415039 13.7234 0.622369 13.2223 0.99149 12.8526L2.17313 11.6695C2.54284 11.3003 3.04392 11.093 3.56635 11.093C4.08879 11.093 4.58988 11.3003 4.9596 11.6695L12.0297 18.735L28.6802 1.04084C29.0385 0.660685 29.533 0.43823 30.0551 0.422304C30.5773 0.406379 31.0844 0.598284 31.4652 0.955894L32.6787 2.10112C33.0593 2.45946 33.282 2.95426 33.298 3.47677C33.3139 3.99928 33.1217 4.50674 32.7636 4.88759L13.5511 25.3151C13.3702 25.5079 13.1524 25.6624 12.9106 25.7693C12.6688 25.8762 12.408 25.9334 12.1437 25.9375C11.8793 25.9417 11.6168 25.8926 11.3719 25.7932C11.1269 25.6938 10.9044 25.5462 10.7176 25.3591Z" fill="white"/>
</svg>
